<svg id="Layer_1" data-name="Layer 1" xmlns="http://www.w3.org/2000/svg" xmlns:xlink="http://www.w3.org/1999/xlink" viewBox="0 0 191.5 184"><defs><style>.cls-1{fill:none;}.cls-2{fill:#dedede;}.cls-3{fill:#4e4e4e;}.cls-4{fill:#4f4f4f;}.cls-5{fill:#d2d2d2;}.cls-6{fill:#bbb;}.cls-7{clip-path:url(#clip-path);}.cls-8{fill:#aaa;}</style><clipPath id="clip-path" transform="translate(-29.25 -34)"><path class="cls-1" d="M125,65a39,39,0,1,0,39,39A39,39,0,0,0,125,65Z"/></clipPath></defs><title>computer</title><g id="Layer_5" data-name="Layer 5"><polygon class="cls-2" points="42.73 90.02 40.73 90.02 40.73 79.02 38.73 79.02 38.73 77.02 42.73 77.02 42.73 90.02"/><rect class="cls-2" x="38.73" y="89.02" width="6" height="2"/><path class="cls-2" d="M83,125H79a3,3,0,0,1-3-3v-8a3,3,0,0,1,3-3h4a3,3,0,0,1,3,3v8A3,3,0,0,1,83,125Zm-4-12a1,1,0,0,0-1,1v8a1,1,0,0,0,1,1h4a1,1,0,0,0,1-1v-8a1,1,0,0,0-1-1Z" transform="translate(-29.25 -34)"/><polygon class="cls-2" points="62.73 90.02 60.73 90.02 60.73 79.02 58.73 79.02 58.73 77.02 62.73 77.02 62.73 90.02"/><rect class="cls-2" x="58.73" y="89.02" width="6" height="2"/><path class="cls-2" d="M103,125H99a3,3,0,0,1-3-3v-8a3,3,0,0,1,3-3h4a3,3,0,0,1,3,3v8A3,3,0,0,1,103,125Zm-4-12a1,1,0,0,0-1,1v8a1,1,0,0,0,1,1h4a1,1,0,0,0,1-1v-8a1,1,0,0,0-1-1Z" transform="translate(-29.25 -34)"/><polygon class="cls-2" points="82.73 90.02 80.73 90.02 80.73 79.02 78.73 79.02 78.73 77.02 82.73 77.02 82.73 90.02"/><rect class="cls-2" x="78.73" y="89.02" width="6" height="2"/><polygon class="cls-2" points="90.73 90.02 88.73 90.02 88.73 79.02 86.73 79.02 86.73 77.02 90.73 77.02 90.73 90.02"/><rect class="cls-2" x="86.73" y="89.02" width="6" height="2"/><polygon class="cls-2" points="98.74 90.02 96.74 90.02 96.74 79.02 94.74 79.02 94.74 77.02 98.74 77.02 98.74 90.02"/><rect class="cls-2" x="94.74" y="89.02" width="6" height="2"/><path class="cls-2" d="M139,125h-4a3,3,0,0,1-3-3v-8a3,3,0,0,1,3-3h4a3,3,0,0,1,3,3v8A3,3,0,0,1,139,125Zm-4-12a1,1,0,0,0-1,1v8a1,1,0,0,0,1,1h4a1,1,0,0,0,1-1v-8a1,1,0,0,0-1-1Z" transform="translate(-29.25 -34)"/><path class="cls-2" d="M151,125h-4a3,3,0,0,1-3-3v-8a3,3,0,0,1,3-3h4a3,3,0,0,1,3,3v8A3,3,0,0,1,151,125Zm-4-12a1,1,0,0,0-1,1v8a1,1,0,0,0,1,1h4a1,1,0,0,0,1-1v-8a1,1,0,0,0-1-1Z" transform="translate(-29.25 -34)"/><polygon class="cls-2" points="130.76 90.02 128.76 90.02 128.76 79.02 126.76 79.02 126.76 77.02 130.76 77.02 130.76 90.02"/><rect class="cls-2" x="126.76" y="89.02" width="6" height="2"/><path class="cls-2" d="M171,125h-4a3,3,0,0,1-3-3v-8a3,3,0,0,1,3-3h4a3,3,0,0,1,3,3v8A3,3,0,0,1,171,125Zm-4-12a1,1,0,0,0-1,1v8a1,1,0,0,0,1,1h4a1,1,0,0,0,1-1v-8a1,1,0,0,0-1-1Z" transform="translate(-29.25 -34)"/><polygon class="cls-2" points="150.77 90.02 148.77 90.02 148.77 79.02 146.77 79.02 146.77 77.02 150.77 77.02 150.77 90.02"/><rect class="cls-2" x="146.77" y="89.02" width="6" height="2"/><polygon class="cls-2" points="42.72 108.03 40.72 108.03 40.72 97.03 38.72 97.03 38.72 95.03 42.72 95.03 42.72 108.03"/><rect class="cls-2" x="38.72" y="107.03" width="6" height="2"/><path class="cls-2" d="M92,143H88a3,3,0,0,1-3-3v-8a3,3,0,0,1,3-3h4a3,3,0,0,1,3,3v8A3,3,0,0,1,92,143Zm-4-12a1,1,0,0,0-1,1v8a1,1,0,0,0,1,1h4a1,1,0,0,0,1-1v-8a1,1,0,0,0-1-1Z" transform="translate(-29.25 -34)"/><polygon class="cls-2" points="51.72 108.03 49.72 108.03 49.72 97.03 47.72 97.03 47.72 95.03 51.72 95.03 51.72 108.03"/><rect class="cls-2" x="47.72" y="107.03" width="6" height="2"/><polygon class="cls-2" points="70.72 108.03 68.72 108.03 68.72 97.03 66.72 97.03 66.72 95.03 70.72 95.03 70.72 108.03"/><rect class="cls-2" x="66.72" y="107.03" width="6" height="2"/><polygon class="cls-2" points="78.72 108.03 76.72 108.03 76.72 97.03 74.72 97.03 74.72 95.03 78.72 95.03 78.72 108.03"/><rect class="cls-2" x="74.72" y="107.03" width="6" height="2"/><path class="cls-2" d="M119,143h-4a3,3,0,0,1-3-3v-8a3,3,0,0,1,3-3h4a3,3,0,0,1,3,3v8A3,3,0,0,1,119,143Zm-4-12a1,1,0,0,0-1,1v8a1,1,0,0,0,1,1h4a1,1,0,0,0,1-1v-8a1,1,0,0,0-1-1Z" transform="translate(-29.25 -34)"/><path class="cls-2" d="M131,143h-4a3,3,0,0,1-3-3v-8a3,3,0,0,1,3-3h4a3,3,0,0,1,3,3v8A3,3,0,0,1,131,143Zm-4-12a1,1,0,0,0-1,1v8a1,1,0,0,0,1,1h4a1,1,0,0,0,1-1v-8a1,1,0,0,0-1-1Z" transform="translate(-29.25 -34)"/><polygon class="cls-2" points="110.75 108.03 108.75 108.03 108.75 97.03 106.75 97.03 106.75 95.03 110.75 95.03 110.75 108.03"/><rect class="cls-2" x="106.75" y="107.03" width="6" height="2"/><path class="cls-2" d="M151,143h-4a3,3,0,0,1-3-3v-8a3,3,0,0,1,3-3h4a3,3,0,0,1,3,3v8A3,3,0,0,1,151,143Zm-4-12a1,1,0,0,0-1,1v8a1,1,0,0,0,1,1h4a1,1,0,0,0,1-1v-8a1,1,0,0,0-1-1Z" transform="translate(-29.25 -34)"/><polygon class="cls-2" points="130.76 108.03 128.76 108.03 128.76 97.03 126.76 97.03 126.76 95.03 130.76 95.03 130.76 108.03"/><rect class="cls-2" x="126.76" y="107.03" width="6" height="2"/><path class="cls-2" d="M171,143h-4a3,3,0,0,1-3-3v-8a3,3,0,0,1,3-3h4a3,3,0,0,1,3,3v8A3,3,0,0,1,171,143Zm-4-12a1,1,0,0,0-1,1v8a1,1,0,0,0,1,1h4a1,1,0,0,0,1-1v-8a1,1,0,0,0-1-1Z" transform="translate(-29.25 -34)"/><polygon class="cls-2" points="150.79 108.03 148.79 108.03 148.79 97.03 146.79 97.03 146.79 95.03 150.79 95.03 150.79 108.03"/><rect class="cls-2" x="146.79" y="107.03" width="6" height="2"/><polygon class="cls-2" points="54.73 72.01 52.73 72.01 52.73 61.01 50.73 61.01 50.73 59.01 54.73 59.01 54.73 72.01"/><rect class="cls-2" x="50.72" y="71.01" width="6" height="2"/><polygon class="cls-2" points="62.73 72.01 60.73 72.01 60.73 61.01 58.73 61.01 58.73 59.01 62.73 59.01 62.73 72.01"/><rect class="cls-2" x="58.73" y="71.01" width="6" height="2"/><polygon class="cls-2" points="70.73 72.01 68.73 72.01 68.73 61.01 66.73 61.01 66.73 59.01 70.73 59.01 70.73 72.01"/><rect class="cls-2" x="66.73" y="71.01" width="6" height="2"/><polygon class="cls-2" points="78.74 72.01 76.74 72.01 76.74 61.01 74.74 61.01 74.74 59.01 78.74 59.01 78.74 72.01"/><rect class="cls-2" x="74.74" y="71.01" width="6" height="2"/><path class="cls-2" d="M74.95,107h-4a3,3,0,0,1-3-3V96a3,3,0,0,1,3-3h4a3,3,0,0,1,3,3v8A3,3,0,0,1,74.95,107Zm-4-12a1,1,0,0,0-1,1v8a1,1,0,0,0,1,1h4a1,1,0,0,0,1-1V96a1,1,0,0,0-1-1Z" transform="translate(-29.25 -34)"/><path class="cls-2" d="M127,107h-4a3,3,0,0,1-3-3V96a3,3,0,0,1,3-3h4a3,3,0,0,1,3,3v8A3,3,0,0,1,127,107Zm-4-12a1,1,0,0,0-1,1v8a1,1,0,0,0,1,1h4a1,1,0,0,0,1-1V96a1,1,0,0,0-1-1Z" transform="translate(-29.25 -34)"/><polygon class="cls-2" points="106.76 72.01 104.76 72.01 104.76 61.01 102.76 61.01 102.76 59.01 106.76 59.01 106.76 72.01"/><rect class="cls-2" x="102.76" y="71.01" width="6" height="2"/><polygon class="cls-2" points="114.76 72.01 112.76 72.01 112.76 61.01 110.76 61.01 110.76 59.01 114.76 59.01 114.76 72.01"/><rect class="cls-2" x="110.76" y="71.01" width="6" height="2"/><path class="cls-2" d="M155,107h-4a3,3,0,0,1-3-3V96a3,3,0,0,1,3-3h4a3,3,0,0,1,3,3v8A3,3,0,0,1,155,107Zm-4-12a1,1,0,0,0-1,1v8a1,1,0,0,0,1,1h4a1,1,0,0,0,1-1V96a1,1,0,0,0-1-1Z" transform="translate(-29.25 -34)"/><polygon class="cls-2" points="134.77 72.01 132.77 72.01 132.77 61.01 130.77 61.01 130.77 59.01 134.77 59.01 134.77 72.01"/><rect class="cls-2" x="130.77" y="71.01" width="6" height="2"/><polygon class="cls-2" points="150.78 72.01 148.78 72.01 148.78 61.01 146.78 61.01 146.78 59.01 150.78 59.01 150.78 72.01"/><rect class="cls-2" x="146.78" y="71.01" width="6" height="2"/><polygon class="cls-2" points="142.78 72.01 140.78 72.01 140.78 61.01 138.78 61.01 138.78 59.01 142.78 59.01 142.78 72.01"/><rect class="cls-2" x="138.78" y="71.01" width="6" height="2"/><path class="cls-2" d="M75.95,89h-4a3,3,0,0,1-3-3V78a3,3,0,0,1,3-3h4a3,3,0,0,1,3,3v8A3,3,0,0,1,75.95,89Zm-4-12a1,1,0,0,0-1,1v8a1,1,0,0,0,1,1h4a1,1,0,0,0,1-1V78a1,1,0,0,0-1-1Z" transform="translate(-29.25 -34)"/><polygon class="cls-2" points="55.69 54 53.69 54 53.69 43 51.69 43 51.69 41 55.69 41 55.69 54"/><rect class="cls-2" x="51.69" y="53" width="6" height="2"/><path class="cls-2" d="M103,89H99a3,3,0,0,1-3-3V78a3,3,0,0,1,3-3h4a3,3,0,0,1,3,3v8A3,3,0,0,1,103,89ZM99,77a1,1,0,0,0-1,1v8a1,1,0,0,0,1,1h4a1,1,0,0,0,1-1V78a1,1,0,0,0-1-1Z" transform="translate(-29.25 -34)"/><polygon class="cls-2" points="82.73 54 80.73 54 80.73 43 78.73 43 78.73 41 82.73 41 82.73 54"/><rect class="cls-2" x="78.73" y="53" width="6" height="2"/><path class="cls-2" d="M123,89h-4a3,3,0,0,1-3-3V78a3,3,0,0,1,3-3h4a3,3,0,0,1,3,3v8A3,3,0,0,1,123,89Zm-4-12a1,1,0,0,0-1,1v8a1,1,0,0,0,1,1h4a1,1,0,0,0,1-1V78a1,1,0,0,0-1-1Z" transform="translate(-29.25 -34)"/><polygon class="cls-2" points="102.77 54 100.77 54 100.77 43 98.77 43 98.77 41 102.77 41 102.77 54"/><rect class="cls-2" x="98.77" y="53" width="6" height="2"/><path class="cls-2" d="M143,89h-4a3,3,0,0,1-3-3V78a3,3,0,0,1,3-3h4a3,3,0,0,1,3,3v8A3,3,0,0,1,143,89Zm-4-12a1,1,0,0,0-1,1v8a1,1,0,0,0,1,1h4a1,1,0,0,0,1-1V78a1,1,0,0,0-1-1Z" transform="translate(-29.25 -34)"/><polygon class="cls-2" points="122.77 54 120.77 54 120.77 43 118.77 43 118.77 41 122.77 41 122.77 54"/><rect class="cls-2" x="118.77" y="53" width="6" height="2"/><path class="cls-2" d="M163,89h-4a3,3,0,0,1-3-3V78a3,3,0,0,1,3-3h4a3,3,0,0,1,3,3v8A3,3,0,0,1,163,89Zm-4-12a1,1,0,0,0-1,1v8a1,1,0,0,0,1,1h4a1,1,0,0,0,1-1V78a1,1,0,0,0-1-1Z" transform="translate(-29.25 -34)"/><polygon class="cls-2" points="142.76 54 140.76 54 140.76 43 138.77 43 138.77 41 142.76 41 142.76 54"/><rect class="cls-2" x="138.77" y="53" width="6" height="2"/><polygon class="cls-2" points="150.77 54 148.77 54 148.77 43 146.77 43 146.77 41 150.77 41 150.77 54"/><rect class="cls-2" x="146.77" y="53" width="6" height="2"/><polygon class="cls-2" points="42.71 35.99 40.71 35.99 40.71 24.99 38.71 24.99 38.71 22.99 42.71 22.99 42.71 35.99"/><rect class="cls-2" x="38.71" y="34.99" width="6" height="2"/><path class="cls-2" d="M83,71H79a3,3,0,0,1-3-3V60a3,3,0,0,1,3-3h4a3,3,0,0,1,3,3v8A3,3,0,0,1,83,71ZM79,59a1,1,0,0,0-1,1v8a1,1,0,0,0,1,1h4a1,1,0,0,0,1-1V60a1,1,0,0,0-1-1Z" transform="translate(-29.25 -34)"/><polygon class="cls-2" points="62.72 35.99 60.72 35.99 60.72 24.99 58.72 24.99 58.72 22.99 62.72 22.99 62.72 35.99"/><rect class="cls-2" x="58.72" y="34.99" width="6" height="2"/><path class="cls-2" d="M103,71H99a3,3,0,0,1-3-3V60a3,3,0,0,1,3-3h4a3,3,0,0,1,3,3v8A3,3,0,0,1,103,71ZM99,59a1,1,0,0,0-1,1v8a1,1,0,0,0,1,1h4a1,1,0,0,0,1-1V60a1,1,0,0,0-1-1Z" transform="translate(-29.25 -34)"/><polygon class="cls-2" points="82.75 35.99 80.75 35.99 80.75 24.99 78.75 24.99 78.75 22.99 82.75 22.99 82.75 35.99"/><rect class="cls-2" x="78.75" y="34.99" width="6" height="2"/><path class="cls-2" d="M123,71h-4a3,3,0,0,1-3-3V60a3,3,0,0,1,3-3h4a3,3,0,0,1,3,3v8A3,3,0,0,1,123,71Zm-4-12a1,1,0,0,0-1,1v8a1,1,0,0,0,1,1h4a1,1,0,0,0,1-1V60a1,1,0,0,0-1-1Z" transform="translate(-29.25 -34)"/><polygon class="cls-2" points="102.75 35.99 100.75 35.99 100.75 24.99 98.75 24.99 98.75 22.99 102.75 22.99 102.75 35.99"/><rect class="cls-2" x="98.75" y="34.99" width="6" height="2"/><path class="cls-2" d="M143,71h-4a3,3,0,0,1-3-3V60a3,3,0,0,1,3-3h4a3,3,0,0,1,3,3v8A3,3,0,0,1,143,71Zm-4-12a1,1,0,0,0-1,1v8a1,1,0,0,0,1,1h4a1,1,0,0,0,1-1V60a1,1,0,0,0-1-1Z" transform="translate(-29.25 -34)"/><polygon class="cls-2" points="122.75 35.99 120.75 35.99 120.75 24.99 118.75 24.99 118.75 22.99 122.75 22.99 122.75 35.99"/><rect class="cls-2" x="118.75" y="34.99" width="6" height="2"/><polygon class="cls-2" points="130.76 35.99 128.76 35.99 128.76 24.99 126.76 24.99 126.76 22.99 130.76 22.99 130.76 35.99"/><rect class="cls-2" x="126.76" y="34.99" width="6" height="2"/><polygon class="cls-2" points="138.76 35.99 136.76 35.99 136.76 24.99 134.76 24.99 134.76 22.99 138.76 22.99 138.76 35.99"/><rect class="cls-2" x="134.76" y="34.99" width="6" height="2"/><path class="cls-2" d="M179,71h-4a3,3,0,0,1-3-3V60a3,3,0,0,1,3-3h4a3,3,0,0,1,3,3v8A3,3,0,0,1,179,71Zm-4-12a1,1,0,0,0-1,1v8a1,1,0,0,0,1,1h4a1,1,0,0,0,1-1V60a1,1,0,0,0-1-1Z" transform="translate(-29.25 -34)"/><path class="cls-2" d="M75,53H71a3,3,0,0,1-3-3V46h2v4a1,1,0,0,0,1,1h4a1,1,0,0,0,1-1V46h2v4A3,3,0,0,1,75,53Z" transform="translate(-29.25 -34)"/><rect class="cls-2" x="52.73" y="12" width="2" height="5.98"/><rect class="cls-2" x="50.72" y="16.98" width="6" height="2"/><rect class="cls-2" x="60.73" y="12" width="2" height="5.98"/><rect class="cls-2" x="58.73" y="16.98" width="6" height="2"/><rect class="cls-2" x="68.75" y="12" width="2" height="5.98"/><rect class="cls-2" x="66.75" y="16.98" width="6" height="2"/><path class="cls-2" d="M111,53h-4a3,3,0,0,1-3-3V46h2v4a1,1,0,0,0,1,1h4a1,1,0,0,0,1-1V46h2v4A3,3,0,0,1,111,53Z" transform="translate(-29.25 -34)"/><rect class="cls-2" x="88.75" y="12" width="2" height="5.98"/><rect class="cls-2" x="86.75" y="16.98" width="6" height="2"/><rect class="cls-2" x="96.75" y="12" width="2" height="5.98"/><rect class="cls-2" x="94.75" y="16.98" width="6" height="2"/><rect class="cls-2" x="104.76" y="12" width="2" height="5.98"/><rect class="cls-2" x="102.76" y="16.98" width="6" height="2"/><rect class="cls-2" x="112.76" y="12" width="2" height="5.98"/><rect class="cls-2" x="110.76" y="16.98" width="6" height="2"/><path class="cls-2" d="M155,53h-4a3,3,0,0,1-3-3V46h2v4a1,1,0,0,0,1,1h4a1,1,0,0,0,1-1V46h2v4A3,3,0,0,1,155,53Z" transform="translate(-29.25 -34)"/><rect class="cls-2" x="132.77" y="12" width="2" height="5.98"/><rect class="cls-2" x="130.77" y="16.98" width="6" height="2"/><rect class="cls-2" x="148.78" y="12" width="2" height="5.98"/><rect class="cls-2" x="146.78" y="16.98" width="6" height="2"/><rect class="cls-2" x="140.78" y="12" width="2" height="5.98"/><rect class="cls-2" x="138.78" y="16.98" width="6" height="2"/><polygon class="cls-2" points="42.71 126.04 40.71 126.04 40.71 115.04 38.71 115.04 38.71 113.04 42.71 113.04 42.71 126.04"/><rect class="cls-2" x="38.71" y="125.04" width="6" height="2"/><polygon class="cls-2" points="50.71 126.04 48.71 126.04 48.71 115.04 46.71 115.04 46.71 113.04 50.71 113.04 50.71 126.04"/><rect class="cls-2" x="46.71" y="125.04" width="6" height="2"/><polygon class="cls-2" points="58.71 126.04 56.71 126.04 56.71 115.04 54.71 115.04 54.71 113.04 58.71 113.04 58.71 126.04"/><rect class="cls-2" x="54.71" y="125.04" width="6" height="2"/><path class="cls-2" d="M99,161H95a3,3,0,0,1-3-3v-8a3,3,0,0,1,3-3h4a3,3,0,0,1,3,3v8A3,3,0,0,1,99,161Zm-4-12a1,1,0,0,0-1,1v8a1,1,0,0,0,1,1h4a1,1,0,0,0,1-1v-8a1,1,0,0,0-1-1Z" transform="translate(-29.25 -34)"/><path class="cls-2" d="M111,161h-4a3,3,0,0,1-3-3v-8a3,3,0,0,1,3-3h4a3,3,0,0,1,3,3v8A3,3,0,0,1,111,161Zm-4-12a1,1,0,0,0-1,1v8a1,1,0,0,0,1,1h4a1,1,0,0,0,1-1v-8a1,1,0,0,0-1-1Z" transform="translate(-29.25 -34)"/><polygon class="cls-2" points="90.73 126.04 88.73 126.04 88.73 115.04 86.73 115.04 86.73 113.04 90.73 113.04 90.73 126.04"/><rect class="cls-2" x="86.73" y="125.04" width="6" height="2"/><path class="cls-2" d="M131,161h-4a3,3,0,0,1-3-3v-8a3,3,0,0,1,3-3h4a3,3,0,0,1,3,3v8A3,3,0,0,1,131,161Zm-4-12a1,1,0,0,0-1,1v8a1,1,0,0,0,1,1h4a1,1,0,0,0,1-1v-8a1,1,0,0,0-1-1Z" transform="translate(-29.25 -34)"/><polygon class="cls-2" points="110.75 126.04 108.75 126.04 108.75 115.04 106.75 115.04 106.75 113.04 110.75 113.04 110.75 126.04"/><rect class="cls-2" x="106.75" y="125.04" width="6" height="2"/><path class="cls-2" d="M151,161h-4a3,3,0,0,1-3-3v-8a3,3,0,0,1,3-3h4a3,3,0,0,1,3,3v8A3,3,0,0,1,151,161Zm-4-12a1,1,0,0,0-1,1v8a1,1,0,0,0,1,1h4a1,1,0,0,0,1-1v-8a1,1,0,0,0-1-1Z" transform="translate(-29.25 -34)"/><polygon class="cls-2" points="130.78 126.04 128.78 126.04 128.78 115.04 126.78 115.04 126.78 113.04 130.78 113.04 130.78 126.04"/><rect class="cls-2" x="126.78" y="125.04" width="6" height="2"/><path class="cls-2" d="M171,161h-4a3,3,0,0,1-3-3v-8a3,3,0,0,1,3-3h4a3,3,0,0,1,3,3v8A3,3,0,0,1,171,161Zm-4-12a1,1,0,0,0-1,1v8a1,1,0,0,0,1,1h4a1,1,0,0,0,1-1v-8a1,1,0,0,0-1-1Z" transform="translate(-29.25 -34)"/><polygon class="cls-2" points="150.78 126.04 148.78 126.04 148.78 115.04 146.78 115.04 146.78 113.04 150.78 113.04 150.78 126.04"/><rect class="cls-2" x="146.78" y="125.04" width="6" height="2"/><polygon class="cls-2" points="86.74 72.01 84.74 72.01 84.74 61.01 82.74 61.01 82.74 59.01 86.74 59.01 86.74 72.01"/><rect class="cls-2" x="82.74" y="71.01" width="6" height="2"/><polygon class="cls-2" points="63.72 54 61.72 54 61.72 43 59.72 43 59.72 41 63.72 41 63.72 54"/><rect class="cls-2" x="59.72" y="53" width="6" height="2"/><path class="cls-3" d="M119.25,181H54.75a5,5,0,0,1-5-5V84a5,5,0,0,1,5-5h5.08v2H54.75a3,3,0,0,0-3,3v92a3,3,0,0,0,3,3h64.5Z" transform="translate(-29.25 -34)"/><path class="cls-3" d="M194.75,181H131v-2h63.75a3,3,0,0,0,3-3V84a3,3,0,0,0-3-3H190V79h4.75a5,5,0,0,1,5,5v92A5,5,0,0,1,194.75,181Z" transform="translate(-29.25 -34)"/><polygon class="cls-3" points="89.83 169 74.5 169 74.51 165.92 77.5 147.75 77.5 145 89.58 145 89.58 147 79.5 147 79.49 148 76.5 166.17 76.5 167 89.83 167 89.83 169"/><polygon class="cls-3" points="116.5 169 101.75 169 101.75 167 114.5 167 114.5 166.17 111.5 148 111.5 147 101.67 147 101.67 145 113.5 145 113.5 147.92 116.5 166.09 116.5 169"/><rect class="cls-3" x="101.83" y="167" width="19.67" height="2"/><rect class="cls-3" x="69.5" y="167" width="20.5" height="2"/><path class="cls-2" d="M108,199h33.56l-2.66-16H110.6Z" transform="translate(-29.25 -34)"/><path class="cls-2" d="M53.75,164v12a1,1,0,0,0,1,1h140a1,1,0,0,0,1-1V164Z" transform="translate(-29.25 -34)"/><rect class="cls-4" x="6" y="81" width="2" height="4"/><rect class="cls-4" x="6" y="91" width="2" height="4"/><rect class="cls-4" x="10" y="87" width="4" height="2"/><rect class="cls-4" y="87" width="4" height="2"/><rect class="cls-4" x="183.5" y="147" width="2" height="4"/><rect class="cls-4" x="183.5" y="157" width="2" height="4"/><rect class="cls-4" x="187.5" y="153" width="4" height="2"/><rect class="cls-4" x="177.5" y="153" width="4" height="2"/><rect class="cls-4" x="183.5" y="83" width="2" height="4"/><rect class="cls-4" x="183.5" y="93" width="2" height="4"/><rect class="cls-4" x="187.5" y="89" width="4" height="2"/><rect class="cls-4" x="177.5" y="89" width="4" height="2"/><circle class="cls-5" cx="9.94" cy="64.58" r="2.44"/><path class="cls-5" d="M39.19,101.51a2.94,2.94,0,1,1,2.94-2.94h0A2.94,2.94,0,0,1,39.19,101.51Zm0-4.88a1.94,1.94,0,1,0,1.94,1.94A1.94,1.94,0,0,0,39.19,96.64Z" transform="translate(-29.25 -34)"/><circle class="cls-6" cx="167.31" cy="27.44" r="2.44"/><circle class="cls-2" cx="15.47" cy="121.05" r="2"/><circle class="cls-2" cx="141.5" cy="159" r="2"/><path class="cls-4" d="M187.75,202a4,4,0,1,1,4-4A4,4,0,0,1,187.75,202Zm0-6a2,2,0,1,0,2,2A2,2,0,0,0,187.75,196Z" transform="translate(-29.25 -34)"/><polygon class="cls-4" points="46.5 167 44.5 167 44.5 160 43.5 160 43.5 158 46.5 158 46.5 167"/><rect class="cls-4" x="43.5" y="166" width="4" height="2"/><polygon class="cls-4" points="182.5 49 180.5 49 180.5 42 179.5 42 179.5 40 182.5 40 182.5 49"/><rect class="cls-4" x="179.5" y="48" width="4" height="2"/><path class="cls-4" d="M84.75,194a3,3,0,0,1-3-3v-4a3,3,0,0,1,6,0v4A3,3,0,0,1,84.75,194Zm0-8a1,1,0,0,0-1,1v4a1,1,0,0,0,2,0v-4a1,1,0,0,0-1-1Z" transform="translate(-29.25 -34)"/><path class="cls-4" d="M206.74,168a3,3,0,0,1-3-3v-4a3,3,0,1,1,6,0v4A3,3,0,0,1,206.74,168Zm0-8a1,1,0,0,0-1,1v4a1,1,0,0,0,2,0v-4A1,1,0,0,0,206.74,160Z" transform="translate(-29.25 -34)"/><rect class="cls-2" x="36.75" y="4" width="118" height="6"/><path class="cls-4" d="M125,147a43,43,0,1,1,43-43h0A43,43,0,0,1,125,147Zm0-84a41,41,0,1,0,41,41A41,41,0,0,0,125,63Z" transform="translate(-29.25 -34)"/><rect class="cls-4" x="96.75" y="112" width="2" height="23.03"/><rect class="cls-4" x="92.75" y="112" width="2" height="23.03"/><path class="cls-4" d="M125,218a4,4,0,0,1-4-4V168h8v46A4,4,0,0,1,125,218Zm-2-48v44a2,2,0,0,0,4,0V170Z" transform="translate(-29.25 -34)"/><g class="cls-7"><polygon class="cls-4" points="62.73 90.02 60.73 90.02 60.73 79.02 58.73 79.02 58.73 77.02 62.73 77.02 62.73 90.02"/><rect class="cls-4" x="58.73" y="89.02" width="6" height="2"/><path class="cls-4" d="M103,125H99a3,3,0,0,1-3-3v-8a3,3,0,0,1,3-3h4a3,3,0,0,1,3,3v8A3,3,0,0,1,103,125Zm-4-12a1,1,0,0,0-1,1v8a1,1,0,0,0,1,1h4a1,1,0,0,0,1-1v-8a1,1,0,0,0-1-1Z" transform="translate(-29.25 -34)"/><polygon class="cls-4" points="82.73 90.02 80.73 90.02 80.73 79.02 78.73 79.02 78.73 77.02 82.73 77.02 82.73 90.02"/><rect class="cls-4" x="78.73" y="89.02" width="6" height="2"/><polygon class="cls-4" points="90.73 90.02 88.73 90.02 88.73 79.02 86.73 79.02 86.73 77.02 90.73 77.02 90.73 90.02"/><rect class="cls-4" x="86.73" y="89.02" width="6" height="2"/><polygon class="cls-4" points="98.74 90.02 96.74 90.02 96.74 79.02 94.74 79.02 94.74 77.02 98.74 77.02 98.74 90.02"/><rect class="cls-4" x="94.74" y="89.02" width="6" height="2"/><path class="cls-4" d="M139,125h-4a3,3,0,0,1-3-3v-8a3,3,0,0,1,3-3h4a3,3,0,0,1,3,3v8A3,3,0,0,1,139,125Zm-4-12a1,1,0,0,0-1,1v8a1,1,0,0,0,1,1h4a1,1,0,0,0,1-1v-8a1,1,0,0,0-1-1Z" transform="translate(-29.25 -34)"/><path class="cls-4" d="M151,125h-4a3,3,0,0,1-3-3v-8a3,3,0,0,1,3-3h4a3,3,0,0,1,3,3v8A3,3,0,0,1,151,125Zm-4-12a1,1,0,0,0-1,1v8a1,1,0,0,0,1,1h4a1,1,0,0,0,1-1v-8a1,1,0,0,0-1-1Z" transform="translate(-29.25 -34)"/><polygon class="cls-4" points="130.76 90.02 128.76 90.02 128.76 79.02 126.76 79.02 126.76 77.02 130.76 77.02 130.76 90.02"/><rect class="cls-4" x="126.76" y="89.02" width="6" height="2"/><polygon class="cls-4" points="70.72 108.03 68.72 108.03 68.72 97.03 66.72 97.03 66.72 95.03 70.72 95.03 70.72 108.03"/><rect class="cls-4" x="66.72" y="107.03" width="6" height="2"/><polygon class="cls-4" points="78.72 108.03 76.72 108.03 76.72 97.03 74.72 97.03 74.72 95.03 78.72 95.03 78.72 108.03"/><rect class="cls-4" x="74.72" y="107.03" width="6" height="2"/><path class="cls-4" d="M119,143h-4a3,3,0,0,1-3-3v-8a3,3,0,0,1,3-3h4a3,3,0,0,1,3,3v8A3,3,0,0,1,119,143Zm-4-12a1,1,0,0,0-1,1v8a1,1,0,0,0,1,1h4a1,1,0,0,0,1-1v-8a1,1,0,0,0-1-1Z" transform="translate(-29.25 -34)"/><path class="cls-4" d="M131,143h-4a3,3,0,0,1-3-3v-8a3,3,0,0,1,3-3h4a3,3,0,0,1,3,3v8A3,3,0,0,1,131,143Zm-4-12a1,1,0,0,0-1,1v8a1,1,0,0,0,1,1h4a1,1,0,0,0,1-1v-8a1,1,0,0,0-1-1Z" transform="translate(-29.25 -34)"/><polygon class="cls-4" points="110.75 110.03 108.75 110.03 108.75 97.03 106.75 97.03 106.75 95.03 110.75 95.03 110.75 110.03"/><path class="cls-4" d="M151,143h-4a3,3,0,0,1-3-3v-8a3,3,0,0,1,3-3h4a3,3,0,0,1,3,3v8A3,3,0,0,1,151,143Zm-4-12a1,1,0,0,0-1,1v8a1,1,0,0,0,1,1h4a1,1,0,0,0,1-1v-8a1,1,0,0,0-1-1Z" transform="translate(-29.25 -34)"/><polygon class="cls-4" points="62.73 72.01 60.73 72.01 60.73 61.01 58.73 61.01 58.73 59.01 62.73 59.01 62.73 72.01"/><rect class="cls-4" x="58.73" y="71.01" width="6" height="2"/><polygon class="cls-4" points="70.73 72.01 68.73 72.01 68.73 61.01 66.73 61.01 66.73 59.01 70.73 59.01 70.73 72.01"/><rect class="cls-4" x="66.73" y="71.01" width="6" height="2"/><polygon class="cls-4" points="78.74 72.01 76.74 72.01 76.74 61.01 74.74 61.01 74.74 59.01 78.74 59.01 78.74 72.01"/><rect class="cls-4" x="74.74" y="71.01" width="6" height="2"/><path class="cls-4" d="M127,107h-4a3,3,0,0,1-3-3V96a3,3,0,0,1,3-3h4a3,3,0,0,1,3,3v8A3,3,0,0,1,127,107Zm-4-12a1,1,0,0,0-1,1v8a1,1,0,0,0,1,1h4a1,1,0,0,0,1-1V96a1,1,0,0,0-1-1Z" transform="translate(-29.25 -34)"/><polygon class="cls-4" points="106.76 72.01 104.76 72.01 104.76 61.01 102.76 61.01 102.76 59.01 106.76 59.01 106.76 72.01"/><rect class="cls-4" x="102.76" y="71.01" width="6" height="2"/><polygon class="cls-4" points="114.76 72.01 112.76 72.01 112.76 61.01 110.76 61.01 110.76 59.01 114.76 59.01 114.76 72.01"/><rect class="cls-4" x="110.76" y="71.01" width="6" height="2"/><path class="cls-4" d="M155,107h-4a3,3,0,0,1-3-3V96a3,3,0,0,1,3-3h4a3,3,0,0,1,3,3v8A3,3,0,0,1,155,107Zm-4-12a1,1,0,0,0-1,1v8a1,1,0,0,0,1,1h4a1,1,0,0,0,1-1V96a1,1,0,0,0-1-1Z" transform="translate(-29.25 -34)"/><polygon class="cls-4" points="134.77 72.01 132.77 72.01 132.77 61.01 130.77 61.01 130.77 59.01 134.77 59.01 134.77 72.01"/><rect class="cls-4" x="130.77" y="71.01" width="6" height="2"/><path class="cls-4" d="M103,89H99a3,3,0,0,1-3-3V78a3,3,0,0,1,3-3h4a3,3,0,0,1,3,3v8A3,3,0,0,1,103,89ZM99,77a1,1,0,0,0-1,1v8a1,1,0,0,0,1,1h4a1,1,0,0,0,1-1V78a1,1,0,0,0-1-1Z" transform="translate(-29.25 -34)"/><polygon class="cls-4" points="82.73 54 80.73 54 80.73 43 78.73 43 78.73 41 82.73 41 82.73 54"/><rect class="cls-4" x="78.73" y="53" width="6" height="2"/><path class="cls-4" d="M123,89h-4a3,3,0,0,1-3-3V78a3,3,0,0,1,3-3h4a3,3,0,0,1,3,3v8A3,3,0,0,1,123,89Zm-4-12a1,1,0,0,0-1,1v8a1,1,0,0,0,1,1h4a1,1,0,0,0,1-1V78a1,1,0,0,0-1-1Z" transform="translate(-29.25 -34)"/><polygon class="cls-4" points="102.77 54 100.77 54 100.77 43 98.77 43 98.77 41 102.77 41 102.77 54"/><rect class="cls-4" x="98.77" y="53" width="6" height="2"/><path class="cls-4" d="M143,89h-4a3,3,0,0,1-3-3V78a3,3,0,0,1,3-3h4a3,3,0,0,1,3,3v8A3,3,0,0,1,143,89Zm-4-12a1,1,0,0,0-1,1v8a1,1,0,0,0,1,1h4a1,1,0,0,0,1-1V78a1,1,0,0,0-1-1Z" transform="translate(-29.25 -34)"/><polygon class="cls-4" points="122.77 54 120.77 54 120.77 43 118.77 43 118.77 41 122.77 41 122.77 54"/><rect class="cls-4" x="118.77" y="53" width="6" height="2"/><path class="cls-4" d="M163,89h-4a3,3,0,0,1-3-3V78a3,3,0,0,1,3-3h4a3,3,0,0,1,3,3v8A3,3,0,0,1,163,89Zm-4-12a1,1,0,0,0-1,1v8a1,1,0,0,0,1,1h4a1,1,0,0,0,1-1V78a1,1,0,0,0-1-1Z" transform="translate(-29.25 -34)"/><path class="cls-4" d="M103,71H99a3,3,0,0,1-3-3V60a3,3,0,0,1,3-3h4a3,3,0,0,1,3,3v8A3,3,0,0,1,103,71ZM99,59a1,1,0,0,0-1,1v8a1,1,0,0,0,1,1h4a1,1,0,0,0,1-1V60a1,1,0,0,0-1-1Z" transform="translate(-29.25 -34)"/><polygon class="cls-4" points="82.75 35.99 80.75 35.99 80.75 24.99 78.75 24.99 78.75 22.99 82.75 22.99 82.75 35.99"/><rect class="cls-4" x="78.75" y="34.99" width="6" height="2"/><path class="cls-4" d="M123,71h-4a3,3,0,0,1-3-3V60a3,3,0,0,1,3-3h4a3,3,0,0,1,3,3v8A3,3,0,0,1,123,71Zm-4-12a1,1,0,0,0-1,1v8a1,1,0,0,0,1,1h4a1,1,0,0,0,1-1V60a1,1,0,0,0-1-1Z" transform="translate(-29.25 -34)"/><polygon class="cls-4" points="102.75 35.99 100.75 35.99 100.75 24.99 98.75 24.99 98.75 22.99 102.75 22.99 102.75 35.99"/><rect class="cls-4" x="98.75" y="34.99" width="6" height="2"/><path class="cls-4" d="M143,71h-4a3,3,0,0,1-3-3V60a3,3,0,0,1,3-3h4a3,3,0,0,1,3,3v8A3,3,0,0,1,143,71Zm-4-12a1,1,0,0,0-1,1v8a1,1,0,0,0,1,1h4a1,1,0,0,0,1-1V60a1,1,0,0,0-1-1Z" transform="translate(-29.25 -34)"/><polygon class="cls-4" points="86.74 72.01 84.74 72.01 84.74 61.01 82.74 61.01 82.74 59.01 86.74 59.01 86.74 72.01"/><rect class="cls-4" x="82.74" y="71.01" width="6" height="2"/><polygon class="cls-4" points="63.72 54 61.72 54 61.72 43 59.72 43 59.72 41 63.72 41 63.72 54"/><rect class="cls-4" x="59.72" y="53" width="6" height="2"/></g><polygon class="cls-3" points="158.75 128 156.75 128 156.75 2 34.75 2 34.75 128 32.75 128 32.75 0 158.75 0 158.75 128"/><circle class="cls-8" cx="24.19" cy="159.44" r="2.44"/></g></svg>