<svg id="Layer_1" data-name="Layer 1" xmlns="http://www.w3.org/2000/svg" xmlns:xlink="http://www.w3.org/1999/xlink" viewBox="0 0 192 175"><defs><style>.cls-1{fill:none;}.cls-2{clip-path:url(#clip-path);}.cls-3{fill:#bbb;}.cls-4{fill:#4e4e4e;}.cls-5{fill:#dedede;}.cls-6{fill:#aaa;}.cls-7{fill:#4f4f4f;}</style><clipPath id="clip-path" transform="translate(-29 -37.5)"><rect class="cls-1" width="250" height="250"/></clipPath></defs><title>gear</title><g class="cls-2"><path class="cls-3" d="M183.28,80.21a62.08,62.08,0,0,0-14.53-20.1c-.75-.72-1.52-1.44-2.31-2.12a63.49,63.49,0,0,0-58.8-13.1l-.08,0c-1.08.31-2.16.65-3.22,1l-1,.36c-.74.27-1.48.55-2.21.85-1,.41-2,.85-3,1.32l-.64.29a63.36,63.36,0,0,0-14.34,9.34,61.71,61.71,0,0,0-13.71,17,64.06,64.06,0,0,0-8.85,32.56v57.23c0,8.84,3,20.14,3.05,21H99.65l-1.16-4.66a131.47,131.47,0,0,0-7.58-21.92h0c-4.85-12-10.24-22.47-14-29.65l-.23-.45a57.22,57.22,0,0,1-4.2-10.67,52.85,52.85,0,0,1,3.4-38.45,54.16,54.16,0,0,1,4.26-7A53.25,53.25,0,0,1,88.54,64c.92-.8,1.88-1.56,2.85-2.29l.55-.42q1.43-1.05,2.91-2l.49-.31c1-.6,1.93-1.2,2.93-1.73l.28-.16c1.06-.57,2.14-1.1,3.23-1.59l.61-.27c1.1-.48,2.2-.94,3.33-1.35l.33-.12q1.63-.59,3.3-1.07l.42-.13q1.74-.49,3.51-.86l.6-.12c1.21-.24,2.42-.46,3.65-.62a55.53,55.53,0,0,1,43.67,13l.16.14,0,0,.06.05,0,0h0l0,0,.05,0,0,0c.59.5,1.16,1,1.72,1.54A54.13,54.13,0,0,1,176,83.49a38.11,38.11,0,0,1,2.63,22.62h8.07A46,46,0,0,0,183.28,80.21Z" transform="translate(-29 -37.5)"/><path class="cls-4" d="M99.32,212.5h-2v-5.31c0-27.18-16.91-59.9-25-75.63-8.89-17.21-9.19-37.27-.81-53.68a58.42,58.42,0,0,1,13.8-17.65,60.53,60.53,0,0,1,79.21,0c.69.59,1.41,1.26,2.22,2a59.07,59.07,0,0,1,13.86,19.16,43.51,43.51,0,0,1,.42,34.3,16.6,16.6,0,0,0,1.68,15.73l7,10.08a3.77,3.77,0,0,1,.84,2.39,3.84,3.84,0,0,1-2.63,3.64l-5.18,1.73a2.07,2.07,0,0,0-1.42,2,4.15,4.15,0,0,0,1.13,3l.29.29v2a3.21,3.21,0,0,1-2.91,3.18,11.92,11.92,0,0,1-.08,2.76,5.49,5.49,0,0,1-2.05,2.73c-.71.59-1,.88-1,1.3l0,6.65a8.82,8.82,0,0,1-8.8,8.79H152.57a5.16,5.16,0,0,0-5.15,5.09l3.08,24.1v1.33h-2v-1.26l-3.08-24.1a7.16,7.16,0,0,1,7.15-7.15h15.25a6.82,6.82,0,0,0,6.8-6.79l0-6.65a3.69,3.69,0,0,1,1.73-2.83,3.71,3.71,0,0,0,1.41-1.75,21.59,21.59,0,0,0,0-3l-.07-1.05h1.05c.9,0,2-.25,2-1.29v-1.21a6.23,6.23,0,0,1-1.42-4.08,4.07,4.07,0,0,1,2.79-3.87l5.18-1.73a1.84,1.84,0,0,0,.83-2.93l-7-10.15A18.49,18.49,0,0,1,179.13,115a41.5,41.5,0,0,0-.39-32.72,57.09,57.09,0,0,0-13.4-18.52c-.59-.55-1.19-1.09-1.81-1.62l0,0-.24-.2,0,0-.13-.11a58.53,58.53,0,0,0-76.59,0,56.42,56.42,0,0,0-13.33,17c-8.09,15.83-7.79,35.21.81,51.85,8.19,15.87,25.25,48.88,25.25,76.54Z" transform="translate(-29 -37.5)"/><path class="cls-5" d="M167,106.67v-1.19H156.29a31.29,31.29,0,0,1-62.57,0H83v1.19l9.55,2.39,2.56,9.55L88,125.46l1.19,2.05,9.47-2.71,7,7L103,141.27l2.05,1.19,6.84-7.07,9.55,2.56,2.39,9.55h2.37l2.39-9.55,9.55-2.56,6.84,7.07,2.05-1.19-2.71-9.47,7-7,9.47,2.71,1.19-2.05-7.08-6.84,2.56-9.55Z" transform="translate(-29 -37.5)"/><path class="cls-5" d="M134.33,106.06s0,.09,0,.14a9.33,9.33,0,1,1-18.67,0s0-.09,0-.14H111s0,.09,0,.14a14,14,0,1,0,28,0s0-.09,0-.14Z" transform="translate(-29 -37.5)"/><path class="cls-4" d="M129.31,151.49h-8.62l-2.58-10.3-5-1.34-7.38,7.63-7.46-4.31,2.92-10.2-3.66-3.66-10.2,2.92L83,124.76l7.63-7.38-1.34-5L79,109.8v-8.62L89.3,98.6l1.34-5L83,86.22l4.31-7.46,10.2,2.92L101.19,78,98.27,67.8l7.46-4.31,7.38,7.63,5-1.34,2.58-10.3h8.62l2.58,10.3,5,1.34,7.38-7.63,7.46,4.31L148.81,78l3.66,3.66,10.2-2.92L167,86.22l-7.63,7.38,1.34,5,10.3,2.58v8.62l-10.3,2.58-1.34,5,7.63,7.38-4.31,7.46-10.2-2.92L148.81,133l2.92,10.2-7.46,4.31-7.38-7.63-5,1.34Zm-7.06-2h5.49l2.48-9.92,7.28-2,7.11,7.35,4.76-2.75-2.81-9.83,5.33-5.33,9.83,2.81,2.75-4.76L157.13,118l2-7.28,9.92-2.48v-5.49l-9.92-2.48-2-7.28,7.35-7.11-2.75-4.76-9.83,2.81-5.33-5.33,2.81-9.83L144.62,66l-7.11,7.35-7.28-2-2.48-9.92h-5.49l-2.48,9.92-7.28,2L105.38,66l-4.76,2.75,2.81,9.83L98.1,83.92l-9.83-2.81-2.75,4.76L92.87,93l-2,7.28L81,102.74v5.49l9.92,2.48,2,7.28-7.35,7.11,2.75,4.76,9.83-2.81,5.33,5.33-2.81,9.83,4.76,2.75,7.11-7.35,7.28,2Z" transform="translate(-29 -37.5)"/><path class="cls-6" d="M125,77.2a28.29,28.29,0,1,0,28.29,28.29A28.29,28.29,0,0,0,125,77.2Zm0,50.14a21.86,21.86,0,1,1,21.86-21.86A21.88,21.88,0,0,1,125,127.34Z" transform="translate(-29 -37.5)"/><path class="cls-4" d="M129.31,151.49h-8.62l-2.58-10.3-5-1.34-7.38,7.63-7.46-4.31,2.92-10.2-3.66-3.66-10.2,2.92L83,124.76l7.63-7.38-1.34-5L79,109.8v-8.62L89.3,98.6l1.34-5L83,86.22l4.31-7.46,10.2,2.92L101.19,78,98.27,67.8l7.46-4.31,7.38,7.63,5-1.34,2.58-10.3h8.62l2.58,10.3,5,1.34,7.38-7.63,7.46,4.31L148.81,78l3.66,3.66,10.2-2.92L167,86.22l-7.63,7.38,1.34,5,10.3,2.58v8.62l-10.3,2.58-1.34,5,7.63,7.38-4.31,7.46-10.2-2.92L148.81,133l2.92,10.2-7.46,4.31-7.38-7.63-5,1.34Zm-7.06-2h5.49l2.48-9.92,7.28-2,7.11,7.35,4.76-2.75-2.81-9.83,5.33-5.33,9.83,2.81,2.75-4.76L157.13,118l2-7.28,9.92-2.48v-5.49l-9.92-2.48-2-7.28,7.35-7.11-2.75-4.76-9.83,2.81-5.33-5.33,2.81-9.83L144.62,66l-7.11,7.35-7.28-2-2.48-9.92h-5.49l-2.48,9.92-7.28,2L105.38,66l-4.76,2.75,2.81,9.83L98.1,83.92l-9.83-2.81-2.75,4.76L92.87,93l-2,7.28L81,102.74v5.49l9.92,2.48,2,7.28-7.35,7.11,2.75,4.76,9.83-2.81,5.33,5.33-2.81,9.83,4.76,2.75,7.11-7.35,7.28,2Z" transform="translate(-29 -37.5)"/><path class="cls-4" d="M125,134.77a29.29,29.29,0,1,1,29.29-29.29A29.32,29.32,0,0,1,125,134.77Zm0-56.57a27.29,27.29,0,1,0,27.29,27.29A27.32,27.32,0,0,0,125,78.2Z" transform="translate(-29 -37.5)"/><path class="cls-4" d="M125,112.49a7,7,0,1,1,7-7A7,7,0,0,1,125,112.49Zm0-12a5,5,0,1,0,5,5A5,5,0,0,0,125,100.49Z" transform="translate(-29 -37.5)"/><path class="cls-4" d="M125,123.84a18.36,18.36,0,1,1,18.36-18.36A18.38,18.38,0,0,1,125,123.84Zm0-34.71a16.36,16.36,0,1,0,16.36,16.36A16.38,16.38,0,0,0,125,89.13Z" transform="translate(-29 -37.5)"/><rect class="cls-7" x="184" y="148" width="2" height="4"/><rect class="cls-7" x="184" y="158" width="2" height="4"/><rect class="cls-7" x="188" y="154" width="4" height="2"/><rect class="cls-7" x="178" y="154" width="4" height="2"/><rect class="cls-7" x="6" y="100" width="2" height="4"/><rect class="cls-7" x="6" y="110" width="2" height="4"/><rect class="cls-7" x="10" y="106" width="4" height="2"/><rect class="cls-7" y="106" width="4" height="2"/><rect class="cls-7" x="162" width="2" height="4"/><rect class="cls-7" x="162" y="10" width="2" height="4"/><rect class="cls-7" x="166" y="6" width="4" height="2"/><rect class="cls-7" x="156" y="6" width="4" height="2"/><circle class="cls-3" cx="178" cy="96.27" r="3.32"/><circle class="cls-3" cx="23.5" cy="27.99" r="3.32"/><circle class="cls-6" cx="134.83" cy="161" r="1"/><circle class="cls-6" cx="23.5" cy="148" r="2"/></g></svg>