<svg id="Layer_1" data-name="Layer 1" xmlns="http://www.w3.org/2000/svg" xmlns:xlink="http://www.w3.org/1999/xlink" viewBox="0 0 192 169.79"><defs><style>.cls-1{fill:none;}.cls-2{clip-path:url(#clip-path);}.cls-3{fill:#dedede;}.cls-4{fill:#bbb;}.cls-5{fill:#d2d2d2;}.cls-6{fill:#aaa;}.cls-7{fill:#4e4e4e;}.cls-8{fill:#4f4f4f;}</style><clipPath id="clip-path" transform="translate(-29 -40.1)"><rect class="cls-1" width="250" height="250"/></clipPath></defs><title>graph</title><g class="cls-2"><path class="cls-3" d="M77.08,80.81a50,50,0,0,1,84.84.06A54,54,0,1,0,114.3,157,50,50,0,0,1,77.08,80.81Z" transform="translate(-29 -40.1)"/><path class="cls-4" d="M182.79,151.25l-24.71-57L137.4,142c-5.23,12.07-13.72,12.07-19,0l-7.28-16.78L103.89,142c-5.23,12.07-13.72,12.07-19,0l-7.07-16.3-11.1,25.6Z" transform="translate(-29 -40.1)"/><path class="cls-5" d="M77.87,125.65l-7.28-16.78c-5.23-12.07-13.72-12.07-19,0L33.26,151.25H66.77Z" transform="translate(-29 -40.1)"/><path class="cls-5" d="M137.4,142l20.68-47.69L150.8,77.48c-5.23-12.07-13.72-12.07-19,0l-20.68,47.69L118.45,142C123.68,154,132.17,154,137.4,142Z" transform="translate(-29 -40.1)"/><path class="cls-6" d="M103.89,142l7.28-16.78-7.07-16.3c-5.23-12.07-13.72-12.07-19,0l-7.28,16.78L84.94,142C90.17,154,98.66,154,103.89,142Z" transform="translate(-29 -40.1)"/><path class="cls-6" d="M216.3,151.25l-32-73.77c-5.23-12.07-13.72-12.07-19,0l-7.28,16.78,24.71,57Z" transform="translate(-29 -40.1)"/><path class="cls-7" d="M112.69,166.07a63,63,0,1,1,44.55-18.45A62.59,62.59,0,0,1,112.69,166.07Zm0-124a61,61,0,1,0,43.13,17.84A60.81,60.81,0,0,0,112.69,42.1Z" transform="translate(-29 -40.1)"/><path class="cls-7" d="M112.6,162.06A59,59,0,1,1,144,53h0a59,59,0,0,1-31.37,109Zm.21-116a57.45,57.45,0,0,0-12.92,1.48,56.69,56.69,0,1,0,12.92-1.48Z" transform="translate(-29 -40.1)"/><rect class="cls-3" x="157.76" y="144.75" width="6" height="9.97" transform="translate(-87.79 117.46) rotate(-45.01)"/><path class="cls-7" d="M168,162.59,153.7,148.33l5.66-5.66,14.26,14.26Zm-11.43-14.26L168,159.76l2.83-2.83L159.36,145.5Z" transform="translate(-29 -40.1)"/><path class="cls-4" d="M188.61,146h10a0,0,0,0,1,0,0v68.14a5,5,0,0,1-5,5h0a5,5,0,0,1-5-5V146A0,0,0,0,1,188.61,146Z" transform="translate(-101.39 150.27) rotate(-45)"/><rect class="cls-8" x="6" y="14.97" width="2" height="4"/><rect class="cls-8" x="6" y="24.97" width="2" height="4"/><rect class="cls-8" x="10" y="20.97" width="4" height="2"/><rect class="cls-8" y="20.97" width="4" height="2"/><rect class="cls-8" x="184" y="124.97" width="2" height="4"/><rect class="cls-8" x="184" y="134.97" width="2" height="4"/><rect class="cls-8" x="188" y="130.97" width="4" height="2"/><rect class="cls-8" x="178" y="130.97" width="4" height="2"/><circle class="cls-5" cx="177" cy="92.86" r="3"/><circle class="cls-5" cx="113" cy="139.97" r="5"/><circle class="cls-5" cx="156" cy="17.86" r="2"/><rect class="cls-8" x="130" y="152.08" width="2" height="4"/><rect class="cls-8" x="130" y="162.08" width="2" height="4"/><rect class="cls-8" x="134" y="158.08" width="4" height="2"/><rect class="cls-8" x="124" y="158.08" width="4" height="2"/><circle class="cls-3" cx="75" cy="41.97" r="8"/><path class="cls-7" d="M104,98.07a2.36,2.36,0,0,1-2.29-1.6L101,94.29a.33.33,0,0,0-.54-.14l-1.73,1.53a2.39,2.39,0,0,1-3.9-2.25l.46-2.26a.33.33,0,0,0-.09-.3.33.33,0,0,0-.3-.09l-2.26.46a2.33,2.33,0,0,1-2.49-1.12,2.36,2.36,0,0,1,.24-2.78l1.53-1.73a.33.33,0,0,0-.14-.54l-2.19-.73A2.33,2.33,0,0,1,88,82.11a2.36,2.36,0,0,1,1.6-2.29l2.19-.73a.33.33,0,0,0,.14-.54L90.4,76.82a2.33,2.33,0,0,1-.28-2.72,2.36,2.36,0,0,1,2.53-1.19l2.26.46a.33.33,0,0,0,.3-.09.33.33,0,0,0,.09-.3l-.46-2.26A2.33,2.33,0,0,1,96,68.24a2.36,2.36,0,0,1,2.78.24L100.48,70a.33.33,0,0,0,.31.07.32.32,0,0,0,.23-.22l.73-2.19a2.33,2.33,0,0,1,2.21-1.6,2.36,2.36,0,0,1,2.29,1.6l.73,2.19a.32.32,0,0,0,.23.22.33.33,0,0,0,.31-.07l1.73-1.53A2.33,2.33,0,0,1,112,68.2a2.36,2.36,0,0,1,1.19,2.53L112.69,73a.33.33,0,0,0,.09.3.33.33,0,0,0,.3.09l2.26-.46A2.33,2.33,0,0,1,117.84,74a2.36,2.36,0,0,1-.24,2.78l-1.53,1.73a.33.33,0,0,0,.15.54l2.19.73A2.33,2.33,0,0,1,120,82a2.36,2.36,0,0,1-1.6,2.29l-2.19.73a.33.33,0,0,0-.14.54l1.53,1.73a2.33,2.33,0,0,1,.28,2.72,2.36,2.36,0,0,1-2.53,1.19l-2.26-.46a.33.33,0,0,0-.3.09.33.33,0,0,0-.09.3l.46,2.26A2.33,2.33,0,0,1,112,95.91a2.36,2.36,0,0,1-2.78-.24l-1.73-1.53a.33.33,0,0,0-.54.15l-.73,2.19A2.33,2.33,0,0,1,104,98.07Zm-3.34-6a2.34,2.34,0,0,1,2.22,1.6l.73,2.19a.33.33,0,0,0,.32.23.37.37,0,0,0,.39-.23l.73-2.19a2.33,2.33,0,0,1,3.76-1l1.73,1.53a.33.33,0,0,0,.39,0,.37.37,0,0,0,.23-.39l-.46-2.26a2.33,2.33,0,0,1,2.75-2.75l2.26.46a.33.33,0,0,0,.36-.16.37.37,0,0,0,0-.46l-1.53-1.73a2.33,2.33,0,0,1,1-3.76l2.19-.73a.33.33,0,0,0,.23-.32.37.37,0,0,0-.23-.39L115.58,81a2.33,2.33,0,0,1-1-3.76l1.53-1.73a.33.33,0,0,0,0-.39.37.37,0,0,0-.39-.23l-2.26.46a2.33,2.33,0,0,1-2.75-2.75l.46-2.26A.33.33,0,0,0,111,70a.37.37,0,0,0-.46,0l-1.73,1.53a2.33,2.33,0,0,1-3.76-1l-.73-2.19a.33.33,0,0,0-.32-.23.37.37,0,0,0-.39.23l-.73,2.19a2.33,2.33,0,0,1-3.76,1L97.42,70a.33.33,0,0,0-.39,0,.37.37,0,0,0-.23.39l.46,2.26a2.33,2.33,0,0,1-2.75,2.75l-2.26-.46a.33.33,0,0,0-.36.16.37.37,0,0,0,0,.46l1.53,1.73a2.33,2.33,0,0,1-1,3.76l-2.19.73A.33.33,0,0,0,90,82a.37.37,0,0,0,.23.39l2.19.73a2.33,2.33,0,0,1,1,3.76L91.9,88.65a.33.33,0,0,0,0,.39.37.37,0,0,0,.39.23l2.26-.46a2.33,2.33,0,0,1,2.75,2.75l-.46,2.26a.33.33,0,0,0,.16.36.37.37,0,0,0,.46,0l1.73-1.53A2.33,2.33,0,0,1,100.7,92.06Z" transform="translate(-29 -40.1)"/><path class="cls-7" d="M104,86.07a4,4,0,1,1,4-4A4,4,0,0,1,104,86.07Zm0-6a2,2,0,1,0,2,2A2,2,0,0,0,104,80.07Z" transform="translate(-29 -40.1)"/><path class="cls-6" d="M79,208.07a19,19,0,1,1,19-19A19,19,0,0,1,79,208.07Zm0-36a17,17,0,1,0,17,17A17,17,0,0,0,79,172.07Z" transform="translate(-29 -40.1)"/><path class="cls-8" d="M79,199.07a1,1,0,0,1-1-1v-10a1,1,0,0,1,1-1h7a1,1,0,0,1,0,2H80v9A1,1,0,0,1,79,199.07Z" transform="translate(-29 -40.1)"/><path class="cls-8" d="M79,176.07a1,1,0,0,1-.38-.08,1.16,1.16,0,0,1-.33-.21l-.12-.15a.76.76,0,0,1-.09-.18.63.63,0,0,1-.06-.18,1.32,1.32,0,0,1,0-.2,1,1,0,0,1,.08-.38.91.91,0,0,1,.54-.54,1,1,0,0,1,.58-.06.63.63,0,0,1,.18.06.76.76,0,0,1,.18.09,1.6,1.6,0,0,1,.15.12,1.16,1.16,0,0,1,.21.33,1,1,0,0,1,.08.38,1.38,1.38,0,0,1,0,.2.65.65,0,0,1-.06.18.76.76,0,0,1-.09.18l-.12.15A1,1,0,0,1,79,176.07Z" transform="translate(-29 -40.1)"/><path class="cls-8" d="M79,204.07a1.05,1.05,0,0,1-.71-.29,1.6,1.6,0,0,1-.12-.15.76.76,0,0,1-.09-.18.63.63,0,0,1-.06-.18,1.32,1.32,0,0,1,0-.2,1,1,0,0,1,.08-.38.93.93,0,0,1,.21-.33,1.15,1.15,0,0,1,.33-.21,1,1,0,0,1,1.09.21,1.05,1.05,0,0,1,.29.71,1.38,1.38,0,0,1,0,.2.65.65,0,0,1-.06.18.76.76,0,0,1-.09.18l-.12.15A1.05,1.05,0,0,1,79,204.07Z" transform="translate(-29 -40.1)"/><path class="cls-8" d="M72,178a1,1,0,0,1-.71-.3,1,1,0,0,1-.21-.32A1,1,0,0,1,71,177a1.21,1.21,0,0,1,0-.2.69.69,0,0,1,.06-.19.55.55,0,0,1,.09-.17l.12-.15a1.19,1.19,0,0,1,.33-.22,1,1,0,0,1,1.09.22,1.89,1.89,0,0,1,.12.15.55.55,0,0,1,.09.17.71.71,0,0,1,.06.19,1.26,1.26,0,0,1,0,.2,1,1,0,0,1-.08.38,1,1,0,0,1-.21.32l-.15.13-.18.09-.18.06Z" transform="translate(-29 -40.1)"/><path class="cls-8" d="M86,202.2l-.19,0-.19-.06-.18-.09-.15-.13a1,1,0,0,1-.21-1.09,1,1,0,0,1,.21-.32,1,1,0,0,1,1.42,0A1,1,0,0,1,86,202.2Z" transform="translate(-29 -40.1)"/><path class="cls-8" d="M66.87,183.07a.87.87,0,0,1-.38-.08,1,1,0,0,1-.32-.21,1,1,0,0,1-.3-.71,1,1,0,0,1,.08-.38,1.19,1.19,0,0,1,.22-.33,1,1,0,0,1,.32-.21,1,1,0,0,1,.77,0,1,1,0,0,1,.32.21,1.18,1.18,0,0,1,.22.33,1.07,1.07,0,0,1,0,.76,1.05,1.05,0,0,1-.22.33,1,1,0,0,1-.32.21A.85.85,0,0,1,66.87,183.07Z" transform="translate(-29 -40.1)"/><path class="cls-8" d="M91.12,197.07l-.19,0a.71.71,0,0,1-.19-.06.55.55,0,0,1-.17-.09l-.15-.12a1,1,0,0,1-.22-1.09.91.91,0,0,1,.22-.33l.15-.12a.55.55,0,0,1,.17-.09.69.69,0,0,1,.19-.06,1,1,0,0,1,.9.27,1,1,0,0,1,.22.33,1,1,0,0,1-.22,1.09A1,1,0,0,1,91.12,197.07Z" transform="translate(-29 -40.1)"/><path class="cls-8" d="M65,190.07a1,1,0,0,1-.38-.08.9.9,0,0,1-.54-.54.95.95,0,0,1,0-.76,1,1,0,0,1,.21-.33.93.93,0,0,1,.33-.21.92.92,0,0,1,.76,0,.9.9,0,0,1,.54.54.94.94,0,0,1,0,.76.9.9,0,0,1-.54.54A1,1,0,0,1,65,190.07Z" transform="translate(-29 -40.1)"/><path class="cls-8" d="M93,190.07l-.2,0-.18-.06-.18-.09a1.47,1.47,0,0,1-.15-.12,1,1,0,0,1-.21-.33.95.95,0,0,1,0-.76,1,1,0,0,1,.21-.33,1,1,0,0,1,1.42,1.42l-.15.12a.76.76,0,0,1-.18.09l-.18.06Z" transform="translate(-29 -40.1)"/><path class="cls-8" d="M66.87,197.07a1,1,0,0,1-.7-.29,1,1,0,0,1-.22-1.09,1.05,1.05,0,0,1,.22-.33,1,1,0,0,1,.9-.27.69.69,0,0,1,.19.06.55.55,0,0,1,.17.09l.15.12a1,1,0,0,1,0,1.42l-.15.12a.55.55,0,0,1-.17.09.71.71,0,0,1-.19.06Z" transform="translate(-29 -40.1)"/><path class="cls-8" d="M91.12,183.07a1,1,0,0,1-.7-.29.92.92,0,0,1-.22-.33,1.07,1.07,0,0,1,0-.76,1,1,0,0,1,1.31-.54,1,1,0,0,1,.32.21,1,1,0,0,1-.32,1.63A.88.88,0,0,1,91.12,183.07Z" transform="translate(-29 -40.1)"/><path class="cls-8" d="M72,202.2a1,1,0,0,1-.71-.3,1,1,0,0,1-.29-.7,1,1,0,0,1,.29-.71,1,1,0,0,1,1.42,0,1,1,0,0,1,.21.32A1,1,0,0,1,72,202.2Z" transform="translate(-29 -40.1)"/><path class="cls-8" d="M86,178a1,1,0,0,1-.71-.3,1,1,0,0,1-.21-.32A1,1,0,0,1,85,177a1.21,1.21,0,0,1,0-.2.69.69,0,0,1,.06-.19.55.55,0,0,1,.09-.17.87.87,0,0,1,.12-.15,1.05,1.05,0,0,1,.33-.22A1,1,0,0,1,87,177a1,1,0,0,1-.29.7l-.15.13-.18.09-.18.06Z" transform="translate(-29 -40.1)"/></g></svg>