<svg xmlns="http://www.w3.org/2000/svg" xmlns:xlink="http://www.w3.org/1999/xlink" viewBox="0 0 186.26 218.8"><defs><style>.cls-1{fill:none;}.cls-2{clip-path:url(#clip-path);}.cls-3{fill:#4f4f4f;}.cls-4{fill:#d2d2d2;}.cls-5{fill:#bbb;}.cls-6{fill:#4e4e4e;}.cls-7{fill:#aaa;}</style><clipPath id="clip-path" transform="translate(-31.87 -15.6)"><rect class="cls-1" width="250" height="250"/></clipPath></defs><title>Asset 1</title><g id="Layer_2" data-name="Layer 2"><g id="Layer_1-2" data-name="Layer 1"><g class="cls-2"><path class="cls-3" d="M101.35,41.46h54.86l23.26,23.26v89.82h2V63.89L157,39.46H101.35a1,1,0,0,0,0,2Z" transform="translate(-31.87 -15.6)"/><path class="cls-3" d="M160.9,182.52H76.14V41.46H91.83a1,1,0,0,0,0-2H74.14V184.52H160.9Z" transform="translate(-31.87 -15.6)"/><polyline class="cls-4" points="124.76 24.86 124.76 48.7 148.6 48.7"/><path class="cls-3" d="M96.58,41.46a1,1,0,0,1-.71-1.7,1,1,0,0,1,1.42,0,1,1,0,0,1,0,1.41A1,1,0,0,1,96.58,41.46Z" transform="translate(-31.87 -15.6)"/><rect class="cls-3" x="60.27" y="50.92" width="18" height="2"/><rect class="cls-3" x="60.27" y="54.92" width="18" height="2"/><path class="cls-3" d="M77.82,184.52H70.14V39.46h7.68a1,1,0,0,1,0,2H72.14V182.52h5.68a1,1,0,1,1,0,2Z" transform="translate(-31.87 -15.6)"/><path class="cls-3" d="M73.82,184.52H66.14V39.46h7.68a1,1,0,0,1,0,2H68.14V182.52h5.68a1,1,0,0,1,0,2Z" transform="translate(-31.87 -15.6)"/><rect class="cls-3" x="177.26" y="157.9" width="2" height="4"/><rect class="cls-3" x="177.26" y="167.9" width="2" height="4"/><rect class="cls-3" x="181.26" y="163.9" width="4" height="2"/><rect class="cls-3" x="171.26" y="163.9" width="4" height="2"/><rect class="cls-3" x="144.27" y="19.92" width="2" height="4"/><rect class="cls-3" x="144.27" y="29.92" width="2" height="4"/><rect class="cls-3" x="148.27" y="25.92" width="4" height="2"/><rect class="cls-3" x="138.27" y="25.92" width="4" height="2"/><circle class="cls-4" cx="165.28" cy="60.94" r="4"/><circle class="cls-4" cx="14.7" cy="121.49" r="2.43"/><circle class="cls-4" cx="26.7" cy="132.35" r="2.43"/><circle class="cls-4" cx="136.7" cy="216.37" r="2.43"/><path class="cls-5" d="M160.9,154.54h16.53c0-25,0-59,.09-59l-44.28,44.29a5.29,5.29,0,1,1-10.32,0L108,125a5.09,5.09,0,0,1-2.25,0L91.71,139a5.29,5.29,0,1,1-10.3,0l-3-3v44.47H160.9Z" transform="translate(-31.87 -15.6)"/><path class="cls-3" d="M132.16,137.89a1,1,0,0,1-.71-1.71l39.38-39.38h-12.3a1,1,0,0,1,0-2h14.72a1,1,0,0,1,.71,1.71L132.87,137.6A1,1,0,0,1,132.16,137.89Z" transform="translate(-31.87 -15.6)"/><path class="cls-3" d="M124,137.89a1,1,0,0,1-.71-.29L110,124.26a1,1,0,0,1,1.41-1.41l13.34,13.34a1,1,0,0,1-.71,1.71Z" transform="translate(-31.87 -15.6)"/><path class="cls-3" d="M90.31,137.42a1,1,0,0,1-.71-1.71l12.54-12.54a1,1,0,0,1,1.41,1.41L91,137.13A1,1,0,0,1,90.31,137.42Z" transform="translate(-31.87 -15.6)"/><path class="cls-3" d="M82.93,137.53a1,1,0,0,1-.71-.29l-4.62-4.62A1,1,0,0,1,79,131.21l4.62,4.62a1,1,0,0,1-.71,1.71Z" transform="translate(-31.87 -15.6)"/><path class="cls-3" d="M86.56,146.46a6.29,6.29,0,1,1,6.29-6.29A6.3,6.3,0,0,1,86.56,146.46Zm0-10.58a4.29,4.29,0,1,0,4.29,4.29A4.29,4.29,0,0,0,86.56,135.88Z" transform="translate(-31.87 -15.6)"/><path class="cls-3" d="M106.92,126.1a6.29,6.29,0,1,1,6.29-6.29A6.3,6.3,0,0,1,106.92,126.1Zm0-10.58a4.29,4.29,0,1,0,4.29,4.29A4.29,4.29,0,0,0,106.92,115.52Z" transform="translate(-31.87 -15.6)"/><path class="cls-3" d="M128.09,147.26a6.29,6.29,0,1,1,6.29-6.29A6.3,6.3,0,0,1,128.09,147.26Zm0-10.58a4.29,4.29,0,1,0,4.29,4.29A4.3,4.3,0,0,0,128.09,136.68Z" transform="translate(-31.87 -15.6)"/><path class="cls-6" d="M85,191l-1.9-.62.55-1.7L81.6,188a4.61,4.61,0,0,1,0-8.76l2.06-.67L82.51,175l-2.06.67a4.61,4.61,0,0,1-5.14-7.09l1.27-1.75-3-2.22-1.27,1.75a4.61,4.61,0,0,1-8.33-2.72v-2.16H60.16v2.16a4.61,4.61,0,0,1-8.34,2.7l-1.27-1.75-3.05,2.21,1.27,1.75a4.61,4.61,0,0,1-5.16,7.08l-2.06-.67-.55,1.7-1.9-.62,1.17-3.6,4,1.29a2.61,2.61,0,0,0,2.92-4l-2.44-3.37L51,161.76l2.44,3.37a2.61,2.61,0,0,0,4.72-1.53v-4.16h7.77v4.16a2.61,2.61,0,0,0,4.71,1.54l2.45-3.37,6.28,4.57-2.45,3.36a2.61,2.61,0,0,0,2.91,4l4-1.28,2.39,7.39-4,1.28a2.61,2.61,0,0,0,0,5l4,1.29Z" transform="translate(-31.87 -15.6)"/><path class="cls-7" d="M72.57,187l-1.9-.62a9.1,9.1,0,1,0-17.3-5.64l-1.9-.62A11.1,11.1,0,0,1,72.57,187Z" transform="translate(-31.87 -15.6)"/><path class="cls-7" d="M62.06,194.6A11.12,11.12,0,0,1,51.5,180.05l1.9.62a9.1,9.1,0,1,0,17.3,5.64l1.9.62a11.12,11.12,0,0,1-10.54,7.66Z" transform="translate(-31.87 -15.6)"/><path class="cls-6" d="M65.91,207.64H58.14v-4.16a2.61,2.61,0,0,0-4.71-1.54L51,205.3l-6.28-4.57,2.45-3.37a2.61,2.61,0,0,0-2.91-4l-4,1.28-2.39-7.39,4-1.28a2.61,2.61,0,0,0,0-5l-4-1.29,1.33-4.08,1.9.62-.71,2.18,2.06.67a4.61,4.61,0,0,1,0,8.76l-2.06.67,1.16,3.59,2.06-.67a4.61,4.61,0,0,1,5.14,7.09l-1.27,1.75,3,2.22,1.27-1.75a4.61,4.61,0,0,1,8.33,2.72v2.16h3.77v-2.16a4.61,4.61,0,0,1,8.34-2.7l1.27,1.75,3.05-2.21-1.27-1.75a4.61,4.61,0,0,1,5.16-7.08l2.06.67.78-2.38,1.9.62-1.4,4.28-4-1.29a2.61,2.61,0,0,0-2.92,4l2.44,3.37-6.29,4.56-2.44-3.37a2.61,2.61,0,0,0-4.72,1.53Z" transform="translate(-31.87 -15.6)"/><circle class="cls-4" cx="30.09" cy="168.07" r="5.4"/><path class="cls-4" d="M62,189.58a5.9,5.9,0,1,1,5.9-5.9A5.91,5.91,0,0,1,62,189.58Zm0-10.81a4.9,4.9,0,1,0,4.9,4.9A4.91,4.91,0,0,0,62,178.77Z" transform="translate(-31.87 -15.6)"/><path class="cls-6" d="M201.13,140.53a17,17,0,1,1,17-17A17,17,0,0,1,201.13,140.53Zm0-32a15,15,0,1,0,15,15A15,15,0,0,0,201.13,108.53Zm0,26a11,11,0,1,1,11-11A11,11,0,0,1,201.13,134.53Zm0-20a9,9,0,1,0,9,9A9,9,0,0,0,201.13,114.53Z" transform="translate(-31.87 -15.6)"/><path class="cls-6" d="M201.13,128.53a5,5,0,1,1,5-5A5,5,0,0,1,201.13,128.53Zm0-8a3,3,0,1,0,3,3A3,3,0,0,0,201.13,120.53Z" transform="translate(-31.87 -15.6)"/><circle class="cls-7" cx="169.26" cy="107.93" r="4"/><path class="cls-7" d="M201.13,128.53a5,5,0,1,1,5-5A5,5,0,0,1,201.13,128.53Zm0-8a3,3,0,1,0,3,3A3,3,0,0,0,201.13,120.53Z" transform="translate(-31.87 -15.6)"/><rect class="cls-6" x="142.26" y="106.93" width="27" height="2"/><path class="cls-6" d="M171.54,128.53h-8.83l5-5-5-5h8.83l5,5Zm-4-2h3.17l3-3-3-3h-3.17l3,3Z" transform="translate(-31.87 -15.6)"/><path class="cls-7" d="M63.2,46.93,47.54,74.07A31.47,31.47,0,0,1,36.07,62.6L63.2,46.93Z" transform="translate(-31.87 -15.6)"/><path class="cls-7" d="M63.2,46.93V78.27a31.18,31.18,0,0,1-15.66-4.2L63.2,46.93Z" transform="translate(-31.87 -15.6)"/><path class="cls-5" d="M36.07,62.6a31.18,31.18,0,0,1-4.2-15.66H63.2Z" transform="translate(-31.87 -15.6)"/><polygon class="cls-4" points="31.33 31.33 31.33 31.33 31.33 31.33 31.33 31.33"/><polygon class="cls-4" points="31.33 31.33 31.33 31.33 31.33 31.33 31.33 31.33"/><path class="cls-5" d="M63.2,46.93H31.87a31.18,31.18,0,0,1,4.2-15.66L63.2,46.93Z" transform="translate(-31.87 -15.6)"/><polygon class="cls-4" points="31.33 31.33 31.33 31.33 31.33 31.33 31.33 31.33"/><polygon class="cls-4" points="31.33 31.33 31.33 31.33 31.33 31.33 31.33 31.33"/><path class="cls-4" d="M94.54,46.93a31.18,31.18,0,0,1-4.2,15.66L63.2,46.93Z" transform="translate(-31.87 -15.6)"/><path class="cls-5" d="M36.07,31.27A31.47,31.47,0,0,1,47.54,19.8L63.2,46.93Z" transform="translate(-31.87 -15.6)"/><path class="cls-7" d="M63.2,46.93,90.34,31.27a31.18,31.18,0,0,1,4.2,15.66H63.2Z" transform="translate(-31.87 -15.6)"/><path class="cls-4" d="M63.2,46.93h0L78.87,74.07a31.18,31.18,0,0,1-15.66,4.2Z" transform="translate(-31.87 -15.6)"/><path class="cls-4" d="M63.2,46.93,90.34,62.6A31.47,31.47,0,0,1,78.87,74.07L63.2,46.93Z" transform="translate(-31.87 -15.6)"/><path class="cls-7" d="M78.87,19.8A31.47,31.47,0,0,1,90.34,31.27L63.2,46.93Z" transform="translate(-31.87 -15.6)"/><path class="cls-3" d="M63.2,17.6a29.33,29.33,0,0,1,12.9,3L63.2,42.93,50.3,20.59a29.33,29.33,0,0,1,12.9-3m0-2a31.18,31.18,0,0,0-15.66,4.2L63.2,46.93,78.87,19.8A31.18,31.18,0,0,0,63.2,15.6Z" transform="translate(-31.87 -15.6)"/><path class="cls-6" d="M197.9,207.54h-38v-54h38Zm-36-2h34v-50h-34Z" transform="translate(-31.87 -15.6)"/><path class="cls-6" d="M169.9,179.54h-6v-6h6Zm-4-2h2v-2h-2Z" transform="translate(-31.87 -15.6)"/><path class="cls-6" d="M169.9,187.54h-6v-6h6Zm-4-2h2v-2h-2Z" transform="translate(-31.87 -15.6)"/><path class="cls-6" d="M169.9,195.54h-6v-6h6Zm-4-2h2v-2h-2Z" transform="translate(-31.87 -15.6)"/><path class="cls-6" d="M169.9,203.54h-6v-6h6Zm-4-2h2v-2h-2Z" transform="translate(-31.87 -15.6)"/><path class="cls-6" d="M177.9,179.54h-6v-6h6Zm-4-2h2v-2h-2Z" transform="translate(-31.87 -15.6)"/><path class="cls-6" d="M177.9,187.54h-6v-6h6Zm-4-2h2v-2h-2Z" transform="translate(-31.87 -15.6)"/><path class="cls-6" d="M177.9,195.54h-6v-6h6Zm-4-2h2v-2h-2Z" transform="translate(-31.87 -15.6)"/><path class="cls-6" d="M177.9,203.54h-6v-6h6Zm-4-2h2v-2h-2Z" transform="translate(-31.87 -15.6)"/><path class="cls-6" d="M185.9,179.54h-6v-6h6Zm-4-2h2v-2h-2Z" transform="translate(-31.87 -15.6)"/><path class="cls-6" d="M185.9,187.54h-6v-6h6Zm-4-2h2v-2h-2Z" transform="translate(-31.87 -15.6)"/><path class="cls-6" d="M185.9,195.54h-6v-6h6Zm-4-2h2v-2h-2Z" transform="translate(-31.87 -15.6)"/><path class="cls-6" d="M185.9,203.54h-6v-6h6Zm-4-2h2v-2h-2Z" transform="translate(-31.87 -15.6)"/><path class="cls-6" d="M193.9,179.54h-6v-6h6Zm-4-2h2v-2h-2Z" transform="translate(-31.87 -15.6)"/><path class="cls-6" d="M193.9,187.54h-6v-6h6Zm-4-2h2v-2h-2Z" transform="translate(-31.87 -15.6)"/><path class="cls-6" d="M193.9,203.54h-6v-14h6Zm-4-2h2v-10h-2Z" transform="translate(-31.87 -15.6)"/><rect class="cls-6" x="129.03" y="153.94" width="36" height="2"/><path class="cls-6" d="M193.9,167.54h-30v-10h30Zm-28-2h26v-6h-26Z" transform="translate(-31.87 -15.6)"/><path class="cls-6" d="M189.9,163.54h-2v-2h2Zm-4,0h-2v-2h2Zm-4,0h-2v-2h2Zm-4,0h-2v-2h2Zm-4,0h-2v-2h2Zm-4,0h-2v-2h2Z" transform="translate(-31.87 -15.6)"/></g></g></g></svg>