<svg xmlns="http://www.w3.org/2000/svg" xmlns:xlink="http://www.w3.org/1999/xlink" viewBox="0 0 192 190.44"><defs><style>.cls-1{fill:none;}.cls-2{clip-path:url(#clip-path);}.cls-3{fill:#dedede;}.cls-4{fill:#aaa;}.cls-5{fill:#bbb;}.cls-6{fill:#fff;}.cls-7{fill:#4f4f4f;}.cls-8{fill:#2b2b2b;}</style><clipPath id="clip-path" transform="translate(-28.98 -30.69)"><rect class="cls-1" width="250" height="250"/></clipPath></defs><title>magnets</title><g id="Layer_2" data-name="Layer 2"><g id="Layer_1-2" data-name="Layer 1"><g class="cls-2"><g id="Layer_4" data-name="Layer 4"><path class="cls-3" d="M114.13,155.92a28.07,28.07,0,0,0-6.62-8.47,29.06,29.06,0,0,0-38,0c-.37.32-.72.65-1.07,1a28.36,28.36,0,0,0-6.65,9.2,20.89,20.89,0,0,0-.2,16.47,7.94,7.94,0,0,1-.81,7.53l-3.32,4.8a1.86,1.86,0,0,0,.84,3l2.49.83a1,1,0,0,1,.67.93,2,2,0,0,1-.53,1.41l-.15.15v1a1.56,1.56,0,0,0,1.39,1.54,5.63,5.63,0,0,0,0,1.31,2.65,2.65,0,0,0,1,1.32c.34.28.47.41.47.61v3.19a4.25,4.25,0,0,0,4.24,4.24h7.31a2.45,2.45,0,0,1,2.46,2.39l-1.48,11.59V221h25.54v-3c0-13,8.11-28.72,12-36.27A28.28,28.28,0,0,0,114.13,155.92Z" transform="translate(-28.98 -30.69)"/><path class="cls-4" d="M82.75,36.51H105.5v21H82.75A25.28,25.28,0,0,0,57.51,82.75c0,.08,0,.17,0,.25h-21c0-.08,0-.17,0-.25A46.3,46.3,0,0,1,82.75,36.51Z" transform="translate(-28.98 -30.69)"/><rect class="cls-3" x="76.53" y="5.82" width="12" height="21"/><rect class="cls-3" x="76.53" y="77.31" width="12" height="21"/><path class="cls-5" d="M82.75,108H105.5v21H82.75A46.3,46.3,0,0,1,36.52,83h21A25.27,25.27,0,0,0,82.75,108Z" transform="translate(-28.98 -30.69)"/><path class="cls-4" d="M128,172.12a12.64,12.64,0,0,0-12.62-12.62H102.5V149h12.87a23.15,23.15,0,0,1,23.12,23.12s0,.08,0,.13H128S128,172.16,128,172.12Z" transform="translate(-28.98 -30.69)"/><rect class="cls-6" x="67.53" y="118.31" width="6" height="10.5"/><rect class="cls-6" x="67.53" y="154.06" width="6" height="10.5"/><path class="cls-5" d="M128,172.24h10.5a23.15,23.15,0,0,1-23.12,23H102.5v-10.5h12.87A12.63,12.63,0,0,0,128,172.24Z" transform="translate(-28.98 -30.69)"/><path class="cls-7" d="M163,221.12l-.33-2.69-3.5-27.36a8,8,0,0,1,8-8h20.77a7.86,7.86,0,0,0,7.84-7.83l0-7.53a5.36,5.36,0,0,1,1-3,8.26,8.26,0,0,0,.95-2c0-.46,0-2.6,0-4.52v-.41l3.15-3.28-1.53-3.06v-.24a4.73,4.73,0,0,1,3.07-4.44l.15-.05H207a4,4,0,0,0,3.08-1.31,3.76,3.76,0,0,0,.56-4c-2.41-5.15-8.31-18.16-11.18-27.64a18.64,18.64,0,0,1-.84-5.83V89.57a52.17,52.17,0,0,0-2-14.24,50.43,50.43,0,0,0-11.22-20.49c-1.17-1.27-2.42-2.51-3.69-3.69-.91-.87-1.71-1.61-2.46-2.26a66.46,66.46,0,0,0-87,0A64.08,64.08,0,0,0,77.17,68.24c-9.18,18-8.84,40,.92,58.88,9.36,18.13,16.17,54.55,16.18,86.61l.11,7.26-2,0-.11-7.27c0-31.79-6.72-67.82-16-85.7-10.05-19.46-10.4-42.16-.92-60.71a66.08,66.08,0,0,1,15.6-20,68.46,68.46,0,0,1,89.59,0c.78.68,1.6,1.43,2.52,2.32,1.3,1.2,2.58,2.48,3.79,3.79A52.32,52.32,0,0,1,198.54,74.7a54.29,54.29,0,0,1,2.08,14.87v18.3a16.67,16.67,0,0,0,.75,5.23c2.83,9.36,8.69,22.26,11.08,27.38a5.74,5.74,0,0,1-.83,6.17,6,6,0,0,1-4.62,2h-4.16a2.74,2.74,0,0,0-1.55,2.27l1.94,3.89-3.56,3.7c.07,4.27,0,4.45,0,4.61a10.14,10.14,0,0,1-1.17,2.58,3.42,3.42,0,0,0-.68,2l0,7.53a9.86,9.86,0,0,1-9.84,9.83H167.16a6,6,0,0,0-6,5.91L165,220.88Z" transform="translate(-28.98 -30.69)"/><path class="cls-8" d="M194.35,161.61h0Z" transform="translate(-28.98 -30.69)"/><rect class="cls-7" x="184" y="136.32" width="2" height="4"/><rect class="cls-7" x="184" y="146.32" width="2" height="4"/><rect class="cls-7" x="188" y="142.32" width="4" height="2"/><rect class="cls-7" x="178" y="142.32" width="4" height="2"/><rect class="cls-7" x="131.96" y="46.27" width="2" height="4"/><rect class="cls-7" x="131.96" y="56.27" width="2" height="4"/><rect class="cls-7" x="135.96" y="52.27" width="4" height="2"/><rect class="cls-7" x="125.96" y="52.27" width="4" height="2"/><rect class="cls-7" x="6" y="102.34" width="2" height="4"/><rect class="cls-7" x="6" y="112.34" width="2" height="4"/><rect class="cls-7" x="10" y="108.34" width="4" height="2"/><rect class="cls-7" y="108.34" width="4" height="2"/><path class="cls-7" d="M90.59,172H55a5,5,0,1,1,0-10H90.59l10.84,5ZM55,164a3,3,0,1,0,0,6H90.15l6.51-3-6.51-3Z" transform="translate(-28.98 -30.69)"/><rect class="cls-7" x="32" y="132.35" width="2" height="8"/><rect class="cls-7" x="33" y="135.35" width="28" height="2"/><path class="cls-7" d="M137.24,71.44A12.74,12.74,0,1,1,150,58.7h0A12.76,12.76,0,0,1,137.24,71.44Zm0-23.48A10.74,10.74,0,1,0,148,58.7,10.74,10.74,0,0,0,137.24,48Z" transform="translate(-28.98 -30.69)"/><path class="cls-7" d="M137.24,71.44c-4.11,0-7.32-5.6-7.32-12.74S133.14,46,137.24,46s7.32,5.6,7.32,12.74S141.35,71.44,137.24,71.44Zm0-23.48c-2.88,0-5.32,4.92-5.32,10.74s2.44,10.74,5.32,10.74,5.32-4.92,5.32-10.74S140.13,48,137.24,48Z" transform="translate(-28.98 -30.69)"/><rect class="cls-7" x="96.82" y="27.47" width="23" height="2"/><polygon class="cls-3" points="160.93 101.36 145.36 94.69 142.69 96.29 150.92 104.52 148.09 107.35 139.98 99.24 138.36 102.5 145.16 118.97 149.99 109.25 158.1 117.36 160.93 114.53 152.69 106.3 160.93 101.36"/><path class="cls-7" d="M164,142.06l-14-33.91,32.05,13.74-8.81,5.29,8,8-4.24,4.24-7.83-7.83Zm-10.28-30.14,10.45,25.31,4.47-9,8.39,8.39,1.41-1.41-8.43-8.43,7.65-4.59Z" transform="translate(-28.98 -30.69)"/></g></g></g></g></svg>