<svg id="Layer_1" data-name="Layer 1" xmlns="http://www.w3.org/2000/svg" xmlns:xlink="http://www.w3.org/1999/xlink" viewBox="0 0 192.11 163.99"><defs><style>.cls-1{fill:none;}.cls-2{clip-path:url(#clip-path);}.cls-3{fill:#d2d2d2;}.cls-4{fill:#4f4f4f;}.cls-5{fill:#4e4e4e;}.cls-6{fill:#aaa;}.cls-7{fill:#bbb;}</style><clipPath id="clip-path" transform="translate(-28.95 -43)"><rect class="cls-1" width="250" height="250"/></clipPath></defs><title>paper-check</title><g class="cls-2"><circle class="cls-3" cx="179.18" cy="115.06" r="3"/><path class="cls-4" d="M186.51,94l-7.66-2.48,1.33-4.11a2.78,2.78,0,0,0-4.28-3.11l-3.49,2.54-4.67-6.43,3.49-2.54a2.78,2.78,0,0,0-1.63-5h-4.32V64.82h4.32a2.78,2.78,0,0,0,1.63-5l-3.49-2.54,4.73-6.52L176,53.27a2.78,2.78,0,0,0,4.28-3.11l-1.34-4.1,7.66-2.49,1.34,4.1a2.71,2.71,0,0,0,2.64,1.92h0a2.71,2.71,0,0,0,2.64-1.92l1.33-4.11L202.17,46l-1.33,4.11a2.78,2.78,0,0,0,4.28,3.11l3.49-2.54,4.68,6.43-3.49,2.54a2.78,2.78,0,0,0,1.64,5h4.32v8.05h-4.32a2.78,2.78,0,0,0-1.63,5l3.49,2.54-4.73,6.51-3.49-2.54a2.78,2.78,0,0,0-4.28,3.11l1.33,4.1L194.47,94l-1.33-4.1A2.71,2.71,0,0,0,190.49,88h0a2.71,2.71,0,0,0-2.65,1.92Zm-5.14-3.77,3.85,1.25.71-2.2A4.71,4.71,0,0,1,190.48,86h0A4.71,4.71,0,0,1,195,89.3l.72,2.2,3.85-1.25-.72-2.2a4.78,4.78,0,0,1,7.36-5.35l1.87,1.36,2.38-3.28-1.87-1.36a4.78,4.78,0,0,1,2.81-8.65h2.32V66.72h-2.32a4.78,4.78,0,0,1-2.81-8.65l1.87-1.36-2.32-3.19-1.87,1.36a4.78,4.78,0,0,1-7.36-5.34l.71-2.2-3.85-1.25-.71,2.2a4.71,4.71,0,0,1-4.55,3.31h0a4.71,4.71,0,0,1-4.55-3.3l-.72-2.2-3.85,1.25.72,2.2a4.78,4.78,0,0,1-7.36,5.35l-1.87-1.36-2.38,3.28,1.87,1.36a4.78,4.78,0,0,1-2.81,8.65h-2.32v4.05h2.32a4.78,4.78,0,0,1,2.81,8.65l-1.87,1.36,2.32,3.19,1.87-1.36a4.78,4.78,0,0,1,7.36,5.34Z" transform="translate(-28.95 -43)"/><path class="cls-5" d="M181.17,75.65A11.59,11.59,0,1,1,199.91,62l-1.62,1.18a9.59,9.59,0,0,0-15.51,11.28Z" transform="translate(-28.95 -43)"/><path class="cls-6" d="M190.5,75.29a6.5,6.5,0,1,1,5.27-2.68A6.46,6.46,0,0,1,190.5,75.29Zm0-10a3.55,3.55,0,0,0-.56,0,3.5,3.5,0,1,0,2.61.62h0A3.47,3.47,0,0,0,190.52,65.29Z" transform="translate(-28.95 -43)"/><path class="cls-4" d="M189.67,83.77a1,1,0,0,1-1-1.06h0a1,1,0,0,1,1.06-.94h0a1,1,0,0,1,.94,1h0a1,1,0,0,1-1,1h0Zm3-1.12a1,1,0,0,1,.75-1.2h0a1,1,0,0,1,1.2.75h0a1,1,0,0,1-.75,1.2h0l-.23,0h0A1,1,0,0,1,192.72,82.65Zm-7.24.27a1,1,0,0,1-.61-1.27h0a1,1,0,0,1,1.28-.61h0a1,1,0,0,1,.61,1.28h0a1,1,0,0,1-.94.66h0A1,1,0,0,1,185.48,82.92Zm11.06-1.45a1,1,0,0,1,.38-1.36h0a1,1,0,0,1,1.36.38h0a1,1,0,0,1-.38,1.36h0a1,1,0,0,1-.49.13h0A1,1,0,0,1,196.54,81.48Zm-14.84-.54h0a1,1,0,0,1-.23-1.4h0a1,1,0,0,1,1.4-.22h0a1,1,0,0,1,.22,1.4h0a1,1,0,0,1-.81.41h0A1,1,0,0,1,181.7,80.94Zm18.17-1.67a1,1,0,0,1,0-1.42h0a1,1,0,0,1,1.42,0h0a1,1,0,0,1,0,1.42h0a1,1,0,0,1-.72.3h0A1,1,0,0,1,199.87,79.27ZM178.64,78a1,1,0,0,1,.18-1.41h0a1,1,0,0,1,1.4.19h0a1,1,0,0,1-.18,1.4h0a1,1,0,0,1-.61.21h0A1,1,0,0,1,178.64,78Zm23.8-1.76a1,1,0,0,1-.42-1.35h0a1,1,0,0,1,1.35-.41h0a1,1,0,0,1,.42,1.35h0a1,1,0,0,1-.89.53h0A1,1,0,0,1,202.44,76.21Zm-25.91-2h0a1,1,0,0,1,.56-1.3h0a1,1,0,0,1,1.3.57h0a1,1,0,0,1-.57,1.3h0a.92.92,0,0,1-.36.07h0A1,1,0,0,1,176.53,74.25ZM204,72.54a1,1,0,0,1-.78-1.18h0a1,1,0,0,1,1.17-.78h0a1,1,0,0,1,.79,1.17h0a1,1,0,0,1-1,.81h0Zm-28.47-2.46a1,1,0,0,1,.91-1.08h0a1,1,0,0,1,1.08.91h0a1,1,0,0,1-.91,1.08h-.09A1,1,0,0,1,175.57,70.08Zm27.89-2.42h0a1,1,0,0,1,.91-1.08h0a1,1,0,0,1,1.08.91h0a1,1,0,0,1-.9,1.08h-.09A1,1,0,0,1,203.46,67.67ZM176.59,67a1,1,0,0,1-.79-1.17h0A1,1,0,0,1,177,65h0a1,1,0,0,1,.78,1.18h0a1,1,0,0,1-1,.8h0A.64.64,0,0,1,176.59,67Zm26-2.93h0a1,1,0,0,1,.57-1.3h0a1,1,0,0,1,1.3.57h0a1,1,0,0,1-.58,1.3h0a1.09,1.09,0,0,1-.36.07h0A1,1,0,0,1,202.62,64.06Zm-25-.92a1,1,0,0,1-.42-1.35h0a1,1,0,0,1,1.35-.41h0a1,1,0,0,1,.42,1.35h0a1,1,0,0,1-.89.53h0A1,1,0,0,1,177.66,63.15Zm23.14-2.3a1,1,0,0,1,.18-1.41h0a1,1,0,0,1,1.4.18h0A1,1,0,0,1,202.2,61h0a1,1,0,0,1-.61.21h0A1,1,0,0,1,200.8,60.84Zm-21-1.09a1,1,0,0,1,0-1.41h0a1,1,0,0,1,1.41,0h0a1,1,0,0,1,0,1.41h0a1,1,0,0,1-.72.3h0A1,1,0,0,1,179.77,59.75Zm18.37-1.49h0a1,1,0,0,1-.22-1.39h0a1,1,0,0,1,1.39-.23h0a1,1,0,0,1,.23,1.4h0a1,1,0,0,1-.82.41h0A1,1,0,0,1,198.14,58.27Zm-15.39-1.17a1,1,0,0,1,.38-1.36h0a1,1,0,0,1,1.36.38h0a1,1,0,0,1-.38,1.36h0a1,1,0,0,1-.49.13h0A1,1,0,0,1,182.75,57.09Zm12.13-.55a1,1,0,0,1-.61-1.28h0a1,1,0,0,1,1.28-.6h0a1,1,0,0,1,.61,1.28h0a1,1,0,0,1-.94.66h0A1,1,0,0,1,194.88,56.54Zm-8.52-1.16a1,1,0,0,1,.75-1.2h0a1,1,0,0,1,1.2.75h0a1,1,0,0,1-.75,1.2h0l-.23,0h0A1,1,0,0,1,186.36,55.38Zm4.89.43a1,1,0,0,1-.94-1.06h0a1,1,0,0,1,1-.94h0a1,1,0,0,1,1,1.06h0a1,1,0,0,1-1,.94h-.05Z" transform="translate(-28.95 -43)"/><rect class="cls-4" x="184.11" y="78.17" width="2" height="4"/><rect class="cls-4" x="184.11" y="88.17" width="2" height="4"/><rect class="cls-4" x="188.11" y="84.17" width="4" height="2"/><rect class="cls-4" x="178.11" y="84.17" width="4" height="2"/><path class="cls-5" d="M47.28,176.31A12.74,12.74,0,1,1,60,163.57,12.76,12.76,0,0,1,47.28,176.31Zm0-23.48A10.74,10.74,0,1,0,58,163.57,10.75,10.75,0,0,0,47.28,152.83Z" transform="translate(-28.95 -43)"/><path class="cls-5" d="M47.28,176.31c-4.11,0-7.32-5.6-7.32-12.74s3.22-12.74,7.32-12.74,7.32,5.6,7.32,12.74S51.38,176.31,47.28,176.31Zm0-23.48c-2.88,0-5.32,4.92-5.32,10.74s2.44,10.74,5.32,10.74,5.32-4.92,5.32-10.74S50.16,152.83,47.28,152.83Z" transform="translate(-28.95 -43)"/><rect class="cls-5" x="6.59" y="119.57" width="23.48" height="2"/><circle class="cls-3" cx="21.16" cy="145.1" r="3"/><circle class="cls-6" cx="12.23" cy="75.87" r="2"/><path class="cls-5" d="M210,207h-101a5,5,0,1,1,0-10H210l10.84,5Zm-101-8a3,3,0,1,0,0,6H209.6l6.51-3-6.51-3Z" transform="translate(-28.95 -43)"/><rect class="cls-5" x="85.72" y="155.39" width="2" height="7.6"/><rect class="cls-5" x="86.72" y="157.96" width="93.39" height="2"/><rect class="cls-4" x="6" y="38.15" width="2" height="4"/><rect class="cls-4" x="6" y="48.15" width="2" height="4"/><rect class="cls-4" x="10" y="44.15" width="4" height="2"/><rect class="cls-4" y="44.15" width="4" height="2"/><path class="cls-4" d="M183.14,188.06H76v-18a1,1,0,0,1,2,0v16H181.14V167.12a1,1,0,0,1,2,0Z" transform="translate(-28.95 -43)"/><path class="cls-4" d="M163,165.91a31,31,0,1,1,31-31A31,31,0,0,1,163,165.91Zm0-60a29,29,0,1,0,29,29A29,29,0,0,0,163,105.91Z" transform="translate(-28.95 -43)"/><path class="cls-4" d="M163,161.91a27,27,0,1,1,27-27A27,27,0,0,1,163,161.91Zm0-52a25,25,0,1,0,25,25A25,25,0,0,0,163,109.91Z" transform="translate(-28.95 -43)"/><path class="cls-4" d="M142,134.91h-2a23,23,0,0,1,23-23v2A21,21,0,0,0,142,134.91Z" transform="translate(-28.95 -43)"/><path class="cls-4" d="M166,113.92l-.2,0-.18-.06-.18-.09-.15-.13a.88.88,0,0,1-.12-.15.54.54,0,0,1-.09-.17.68.68,0,0,1-.06-.19,1.38,1.38,0,0,1,0-.2,1,1,0,0,1,.29-.7,1,1,0,0,1,1.41,0,.87.87,0,0,1,.22.32,1,1,0,0,1,.08.38,1,1,0,0,1-1,1Z" transform="translate(-28.95 -43)"/><path class="cls-4" d="M141,138.9a1,1,0,0,1-.71-.29,1,1,0,0,1,0-1.41l.15-.13.18-.09.18-.06a1,1,0,0,1,.58.06.88.88,0,0,1,.32.22,1,1,0,0,1,.3.71,1.14,1.14,0,0,1,0,.19.68.68,0,0,1-.06.19.56.56,0,0,1-.09.17.93.93,0,0,1-.13.15,1,1,0,0,1-.32.22A1,1,0,0,1,141,138.9Z" transform="translate(-28.95 -43)"/><rect class="cls-4" x="186.69" y="154.66" width="2" height="9.96" transform="translate(-86.85 136.48) rotate(-45)"/><path class="cls-4" d="M215.14,191.1a4,4,0,0,1-2.83-1.17L187.6,165.22l5.66-5.66L218,184.28a4,4,0,0,1,0,5.66h0A4,4,0,0,1,215.14,191.1Zm-24.71-25.88,23.3,23.3a2,2,0,1,0,2.83-2.83l-23.3-23.3Z" transform="translate(-28.95 -43)"/><rect class="cls-4" x="210.02" y="183.98" width="6" height="2" transform="translate(-97.36 161.81) rotate(-45)"/><rect class="cls-4" x="190.95" y="164.92" width="6" height="2" transform="translate(-89.46 142.74) rotate(-45)"/><rect class="cls-4" x="154.2" y="88.9" width="2" height="6"/><path class="cls-4" d="M184.15,141.9a1,1,0,0,1-1-1,1,1,0,0,1,.29-.7,1,1,0,0,1,1.09-.22l.17.09a.63.63,0,0,1,.15.13.87.87,0,0,1,.22.32,1,1,0,0,1,.08.38,1,1,0,0,1-.08.39.87.87,0,0,1-.22.32.63.63,0,0,1-.15.13l-.17.09A1,1,0,0,1,184.15,141.9Z" transform="translate(-28.95 -43)"/><path class="cls-4" d="M184.15,129.9a1,1,0,0,1-.71-.3,1,1,0,0,1-.29-.7,1.08,1.08,0,0,1,.07-.39,1,1,0,0,1,1.31-.54.94.94,0,0,1,.17.1.45.45,0,0,1,.15.12.88.88,0,0,1,.22.32,1,1,0,0,1,.08.39,1,1,0,0,1-.08.38.88.88,0,0,1-.22.32.64.64,0,0,1-.15.13.85.85,0,0,1-.17.09A1,1,0,0,1,184.15,129.9Z" transform="translate(-28.95 -43)"/><path class="cls-4" d="M182.15,163.92l-.2,0-.19-.06a.68.68,0,0,1-.17-.09l-.15-.12a1,1,0,0,1-.13-.16l-.09-.17a1,1,0,0,1,0-.19.6.6,0,0,1,0-.19,1.08,1.08,0,0,1,.07-.39,1,1,0,0,1,.22-.32.78.78,0,0,1,.15-.12l.17-.1.19-.05a.86.86,0,0,1,.39,0l.19.05a.94.94,0,0,1,.17.1.45.45,0,0,1,.15.12.88.88,0,0,1,.22.32,1.09,1.09,0,0,1,.08.39,1.25,1.25,0,0,1,0,.19,1.07,1.07,0,0,1-.06.19l-.09.17a1,1,0,0,1-.13.16l-.15.12a.55.55,0,0,1-.17.09.59.59,0,0,1-.19.06Z" transform="translate(-28.95 -43)"/><polyline class="cls-3" points="106.68 1 106.68 24.84 130.52 24.84"/><path class="cls-4" d="M77,170.8a1,1,0,0,1-1-1V120.3a4.5,4.5,0,1,0-9,0v17a6.51,6.51,0,0,1-6.5,6.5h-.9a6.51,6.51,0,0,1-6.5-6.5V43H70.82a1,1,0,0,1,0,2H55.14V137.3a4.5,4.5,0,0,0,4.5,4.5h.9a4.5,4.5,0,0,0,4.5-4.5v-17a6.5,6.5,0,0,1,13,0v49.5A1,1,0,0,1,77,170.8Z" transform="translate(-28.95 -43)"/><path class="cls-4" d="M159.47,104.11a1,1,0,0,1-1-1V68.26L135.21,45H80.34a1,1,0,0,1,0-2H136l24.43,24.43v35.68A1,1,0,0,1,159.47,104.11Z" transform="translate(-28.95 -43)"/><path class="cls-4" d="M75.58,45a1,1,0,0,1-.38-.07,1.27,1.27,0,0,1-.33-.22,1,1,0,0,1-.29-.71,1,1,0,0,1,.08-.38,1.18,1.18,0,0,1,.21-.33,1.06,1.06,0,0,1,.9-.27.62.62,0,0,1,.19.06.57.57,0,0,1,.17.09l.16.12a1.13,1.13,0,0,1,.21.33,1,1,0,0,1,.08.38,1,1,0,0,1-.29.71.6.6,0,0,1-.16.12,1,1,0,0,1-.17.1l-.19,0A.61.61,0,0,1,75.58,45Z" transform="translate(-28.95 -43)"/><path class="cls-4" d="M134,115.8H71.53a1,1,0,0,1,0-2H134a1,1,0,0,1,0,2Z" transform="translate(-28.95 -43)"/><path class="cls-4" d="M76.7,143.8H60.53a1,1,0,1,1,0-2H76.7a1,1,0,0,1,0,2Z" transform="translate(-28.95 -43)"/><circle class="cls-7" cx="17.24" cy="22.83" r="2"/><path class="cls-3" d="M68.66,139.8H74V120.3a2.5,2.5,0,0,0-5,0v17A8.47,8.47,0,0,1,68.66,139.8Z" transform="translate(-28.95 -43)"/><polygon class="cls-7" points="167.74 72.13 163.5 67.88 134.86 96.52 122.24 83.9 118 88.14 134.85 104.99 134.86 104.98 134.88 104.99 167.74 72.13"/><path class="cls-4" d="M163.81,149.39l-.72-.69-17.56-17.56,5.66-5.66,12.62,12.62,28.64-28.64,5.66,5.66-34.26,34.26h0Zm-15.45-18.25,15.45,15.45,31.46-31.46-2.83-2.83-28.64,28.64-12.62-12.62Z" transform="translate(-28.95 -43)"/><path class="cls-4" d="M71.09,87a2,2,0,0,1-2-2.34l1.41-8.23-6-5.83a2,2,0,0,1,1.11-3.41L73.93,66l3.7-7.49a2,2,0,0,1,3.59,0L84.91,66l8.27,1.2a2,2,0,0,1,1.11,3.41l-6,5.83,1.41,8.23a2,2,0,0,1-2.9,2.11l-7.39-3.89L72,86.76A2,2,0,0,1,71.09,87Zm8.33-6.38L87.74,85l-1.59-9.27,6.73-6.56-9.31-1.35-4.16-8.43-4.16,8.43-9.31,1.35,6.73,6.56L71.09,85ZM74.59,66.89h0Z" transform="translate(-28.95 -43)"/><polygon class="cls-3" points="50.47 20.89 47.64 26.63 41.3 27.55 45.88 32.02 44.8 38.33 50.47 35.35 56.14 38.33 55.06 32.02 59.64 27.55 53.31 26.63 50.47 20.89"/><path class="cls-4" d="M75.95,99h-8V91h8Zm-6-2h4V93h-4Z" transform="translate(-28.95 -43)"/><rect class="cls-4" x="50" y="50.99" width="64" height="2"/><path class="cls-4" d="M75.95,109h-8v-8h8Zm-6-2h4v-4h-4Z" transform="translate(-28.95 -43)"/><rect class="cls-4" x="50" y="61" width="64" height="2"/><path class="cls-4" d="M95,133H87v-8h8Zm-6-2h4v-4H89Z" transform="translate(-28.95 -43)"/><rect class="cls-4" x="69.01" y="85.01" width="31.98" height="2"/><path class="cls-4" d="M95,143H87v-8h8Zm-6-2h4v-4H89Z" transform="translate(-28.95 -43)"/><rect class="cls-4" x="69.01" y="95.02" width="31.98" height="2"/><path class="cls-4" d="M95,153H87v-8h8Zm-6-2h4v-4H89Z" transform="translate(-28.95 -43)"/><rect class="cls-4" x="69.01" y="105.02" width="31.98" height="2"/><path class="cls-4" d="M95,163H87v-8h8Zm-6-2h4v-4H89Z" transform="translate(-28.95 -43)"/><rect class="cls-4" x="69.01" y="115.03" width="40.98" height="2"/><path class="cls-4" d="M95,173H87v-8h8Zm-6-2h4v-4H89Z" transform="translate(-28.95 -43)"/><rect class="cls-4" x="69.01" y="125.04" width="67" height="2"/></g></svg>