<svg id="Layer_1" data-name="Layer 1" xmlns="http://www.w3.org/2000/svg" xmlns:xlink="http://www.w3.org/1999/xlink" viewBox="0 0 192.22 159.89"><defs><style>.cls-1,.cls-7{fill:none;}.cls-2{clip-path:url(#clip-path);}.cls-3{fill:#aaa;}.cls-4{fill:#8f8f8f;}.cls-5{fill:#dedede;}.cls-6{fill:#4f4f4f;}.cls-7{stroke:#4f4f4f;stroke-miterlimit:10;stroke-width:2px;}.cls-8{fill:#4e4e4e;}.cls-9{fill:#d2d2d2;}</style><clipPath id="clip-path" transform="translate(-28.89 -45.05)"><rect class="cls-1" width="250" height="250"/></clipPath></defs><title>target</title><g class="cls-2"><polygon class="cls-3" points="183.19 75.97 169.19 75.97 175.2 81.97 189.2 81.97 183.19 75.97"/><polygon class="cls-3" points="183.2 71.97 189.2 65.97 175.2 65.97 169.2 71.97 183.2 71.97"/><path class="cls-3" d="M125.09,121v-4h7.22a7.5,7.5,0,1,0,0,4Z" transform="translate(-28.89 -45.05)"/><path class="cls-3" d="M142.55,121a17.58,17.58,0,1,1,0-4h10.13a27.67,27.67,0,1,0,0,4Z" transform="translate(-28.89 -45.05)"/><path class="cls-3" d="M162.79,121a37.75,37.75,0,1,1,0-4h10.09a47.83,47.83,0,1,0,0,4Z" transform="translate(-28.89 -45.05)"/><path class="cls-3" d="M183,121a57.92,57.92,0,1,1,0-4H193a68,68,0,1,0,0,4Z" transform="translate(-28.89 -45.05)"/><path class="cls-4" d="M67.33,138.62a11.73,11.73,0,0,0-9.75-11.56,67.52,67.52,0,0,0,5.74,20.39A11.7,11.7,0,0,0,67.33,138.62Z" transform="translate(-28.89 -45.05)"/><path class="cls-4" d="M174.55,165.66l-7.13-7.13q-1.37,1.46-2.83,2.83l7.13,7.13Q173.18,167.11,174.55,165.66Z" transform="translate(-28.89 -45.05)"/><path class="cls-4" d="M160.29,151.4l-7.14-7.14a38,38,0,0,1-2.83,2.83l7.14,7.14Q158.94,152.87,160.29,151.4Z" transform="translate(-28.89 -45.05)"/><path class="cls-4" d="M146,137.12,138.85,130a17.67,17.67,0,0,1-2.83,2.83l7.16,7.16A27.8,27.8,0,0,0,146,137.12Z" transform="translate(-28.89 -45.05)"/><path class="cls-5" d="M157.47,154.23l7.13,7.13q1.46-1.37,2.83-2.83l-7.13-7.13Q158.94,152.87,157.47,154.23Z" transform="translate(-28.89 -45.05)"/><path class="cls-5" d="M143.18,139.94l7.15,7.15a38,38,0,0,0,2.83-2.83L146,137.12A27.8,27.8,0,0,1,143.18,139.94Z" transform="translate(-28.89 -45.05)"/><path class="cls-5" d="M128.79,125.55l7.24,7.24a17.67,17.67,0,0,0,2.83-2.83l-7.24-7.24A7.53,7.53,0,0,1,128.79,125.55Z" transform="translate(-28.89 -45.05)"/><path class="cls-6" d="M125.09,127.52a8.5,8.5,0,0,1,0-17,1,1,0,1,1,0,2,6.5,6.5,0,0,0,0,13,1,1,0,1,1,0,2Z" transform="translate(-28.89 -45.05)"/><path class="cls-7" d="M125.09,117" transform="translate(-28.89 -45.05)"/><polygon class="cls-6" points="191.61 82.97 174.79 82.97 168.49 76.68 169.91 75.26 175.62 80.97 186.79 80.97 182.49 76.68 183.91 75.26 191.61 82.97"/><path class="cls-6" d="M196.87,204.95l-6.66-2.16,1.16-3.56a2.13,2.13,0,0,0-3.27-2.38l-3,2.2L181,193.45l3-2.2a2.13,2.13,0,0,0-1.25-3.85H179v-7h3.74a2.13,2.13,0,0,0,1.25-3.85l-3-2.2,4.11-5.67,3,2.2a2.13,2.13,0,0,0,3.27-2.38l-1.16-3.56,6.66-2.17,1.16,3.56a2.07,2.07,0,0,0,2,1.47h0a2.07,2.07,0,0,0,2-1.47l1.16-3.56,6.66,2.16-1.15,3.56a2.13,2.13,0,0,0,3.27,2.38l3-2.2,4.07,5.6-3,2.2a2.13,2.13,0,0,0,1.25,3.85h3.74v7h-3.74a2.13,2.13,0,0,0-1.25,3.85l3,2.2L215,199l-3-2.2a2.13,2.13,0,0,0-3.27,2.38l1.16,3.56-6.66,2.17-1.16-3.56a2.07,2.07,0,0,0-2-1.47h0a2.07,2.07,0,0,0-2,1.47Zm-4.14-3.45,2.86.93.54-1.66a4.07,4.07,0,0,1,3.92-2.85h0a4.07,4.07,0,0,1,3.92,2.85l.54,1.66,2.86-.93-.54-1.66a4.13,4.13,0,0,1,6.35-4.62l1.41,1,1.76-2.43-1.41-1a4.13,4.13,0,0,1,2.42-7.47h1.74v-3h-1.74a4.13,4.13,0,0,1-2.43-7.47l1.41-1-1.72-2.36-1.41,1a4.13,4.13,0,0,1-6.35-4.61l.54-1.66-2.86-.93L204,167a4.07,4.07,0,0,1-3.92,2.85h0a4.06,4.06,0,0,1-3.92-2.85l-.54-1.66-2.86.93.54,1.66A4.13,4.13,0,0,1,187,172.5l-1.41-1-1.76,2.43,1.41,1a4.13,4.13,0,0,1-2.42,7.47H181v3h1.74a4.13,4.13,0,0,1,2.43,7.46l-1.41,1,1.72,2.36,1.41-1a4.13,4.13,0,0,1,6.35,4.61Z" transform="translate(-28.89 -45.05)"/><path class="cls-3" d="M200.06,187.86a4,4,0,1,1,2.35-7.24h0a4,4,0,0,1-2.35,7.24Zm0-6a2,2,0,1,0,1.17.38h0A2,2,0,0,0,200.07,181.86Z" transform="translate(-28.89 -45.05)"/><path class="cls-6" d="M199.91,195.48a1,1,0,0,1,.92-1.07h0a1,1,0,0,1,1.07.93h0a1,1,0,0,1-.92,1.06h-.08A1,1,0,0,1,199.91,195.48Zm-3.28.48a1,1,0,0,1-.69-1.23h0a1,1,0,0,1,1.24-.69h0a1,1,0,0,1,.69,1.23h0a1,1,0,0,1-1,.73h0A.87.87,0,0,1,196.63,196Zm7.26-1.12a1,1,0,0,1,.5-1.33h0a1,1,0,0,1,1.33.51h0a1,1,0,0,1-.51,1.32h0a1,1,0,0,1-.41.09h0A1,1,0,0,1,203.89,194.84Zm-11.19-.78a1,1,0,0,1-.22-1.4h0a1,1,0,0,1,1.4-.22h0a1,1,0,0,1,.23,1.39h0a1,1,0,0,1-.81.41h0A1,1,0,0,1,192.7,194.06Zm14.71-1.19a1,1,0,0,1,0-1.41h0a1,1,0,0,1,1.42,0h0a1,1,0,0,1,0,1.41h0a1,1,0,0,1-.69.28h0A1,1,0,0,1,207.41,192.87Zm-17.75-1.94a1,1,0,0,1,.26-1.39h0a1,1,0,0,1,1.39.26h0a1,1,0,0,1-.26,1.39h0a1,1,0,0,1-.56.17h0A1,1,0,0,1,189.66,190.93Zm20.39-1.11a1,1,0,0,1-.47-1.34h0a1,1,0,0,1,1.34-.46h0a1,1,0,0,1,.46,1.33h0a1,1,0,0,1-.9.57h0A1.12,1.12,0,0,1,210.05,189.82Zm-22.18-2.88a1,1,0,0,1,.73-1.21h0a1,1,0,0,1,1.21.72h0a1,1,0,0,1-.72,1.22h0l-.25,0h0A1,1,0,0,1,187.87,186.94Zm23.61-.89a1,1,0,0,1-.89-1.1h0a1,1,0,0,1,1.1-.9h0a1,1,0,0,1,.89,1.1h0a1,1,0,0,1-1,.9h-.1Zm-23-2.37a1,1,0,0,1-.9-1.09h0a1,1,0,0,1,1.1-.9h0a1,1,0,0,1,.89,1.1h0a1,1,0,0,1-1,.9h-.1Zm21.88-2.4h0a1,1,0,0,1,.72-1.21h0a1,1,0,0,1,1.22.73h0a1,1,0,0,1-.73,1.21h0a1,1,0,0,1-.24,0h0A1,1,0,0,1,210.33,181.28Zm-21.12-1.56a1,1,0,0,1-.47-1.34h0a1,1,0,0,1,1.34-.46h0a1,1,0,0,1,.46,1.34h0a1,1,0,0,1-.9.56h0A.94.94,0,0,1,189.21,179.72Zm19.62-1.79h0a1,1,0,0,1,.27-1.39h0a1,1,0,0,1,1.39.27h0a1,1,0,0,1-.27,1.39h0a1,1,0,0,1-.56.17h0A1,1,0,0,1,208.83,177.93Zm-17.55-1.67a1,1,0,0,1,0-1.42h0a1,1,0,0,1,1.41,0h0a1,1,0,0,1,0,1.42h0a1,1,0,0,1-.69.28h0A1,1,0,0,1,191.28,176.26Zm15-1h0a1,1,0,0,1-.23-1.4h0a1,1,0,0,1,1.4-.23h0l0,0h0a1,1,0,0,1,.22,1.39h0a1,1,0,0,1-.81.41h0A1,1,0,0,1,206.27,175.29Zm-11.86-1.58a1,1,0,0,1,.5-1.32h0a1,1,0,0,1,1.32.5h0a1,1,0,0,1-.5,1.32h0a1.05,1.05,0,0,1-.41.09h0A1,1,0,0,1,194.41,173.71Zm8.53,0a1,1,0,0,1-.69-1.24h0a1,1,0,0,1,1.24-.69h0a1,1,0,0,1,.69,1.24h0a1,1,0,0,1-1,.73h0A1.26,1.26,0,0,1,202.94,173.68Zm-4.72-1.29a1,1,0,0,1,.92-1.07h0a1,1,0,0,1,1.07.92h0a1,1,0,0,1-.92,1.07h-.08A1,1,0,0,1,198.22,172.39Z" transform="translate(-28.89 -45.05)"/><path class="cls-8" d="M50.59,141.35a12.74,12.74,0,1,1,12.74-12.74A12.76,12.76,0,0,1,50.59,141.35Zm0-23.48a10.74,10.74,0,1,0,10.74,10.74A10.75,10.75,0,0,0,50.59,117.87Z" transform="translate(-28.89 -45.05)"/><path class="cls-8" d="M50.59,141.35c-4.11,0-7.32-5.6-7.32-12.74s3.22-12.74,7.32-12.74,7.32,5.6,7.32,12.74S54.69,141.35,50.59,141.35Zm0-23.48c-2.88,0-5.32,4.92-5.32,10.74s2.44,10.74,5.32,10.74,5.32-4.92,5.32-10.74S53.47,117.87,50.59,117.87Z" transform="translate(-28.89 -45.05)"/><rect class="cls-8" x="9.96" y="82.55" width="23.48" height="2"/><path class="cls-8" d="M33.89,105.7a5,5,0,1,1,0-10h55.6l10.84,5-10.84,5Zm0-8a3,3,0,1,0,0,6H89.06l6.51-3-6.51-3Z" transform="translate(-28.89 -45.05)"/><rect class="cls-8" x="10.61" y="52.05" width="2" height="7.6"/><rect class="cls-8" x="11.61" y="54.62" width="48.01" height="2"/><rect class="cls-6" x="155.38" y="13.94" width="2" height="4"/><rect class="cls-6" x="155.38" y="23.94" width="2" height="4"/><rect class="cls-6" x="159.38" y="19.94" width="4" height="2"/><rect class="cls-6" x="149.38" y="19.94" width="4" height="2"/><rect class="cls-6" x="45.31" y="134.02" width="2" height="4"/><rect class="cls-6" x="45.31" y="144.02" width="2" height="4"/><rect class="cls-6" x="49.31" y="140.02" width="4" height="2"/><rect class="cls-6" x="39.31" y="140.02" width="4" height="2"/><rect class="cls-6" x="177.39" y="93.99" width="2" height="4"/><rect class="cls-6" x="177.39" y="103.99" width="2" height="4"/><rect class="cls-6" x="181.39" y="99.99" width="4" height="2"/><rect class="cls-6" x="171.39" y="99.99" width="4" height="2"/><circle class="cls-9" cx="25.28" cy="118.96" r="3.67"/><circle class="cls-9" cx="132.95" cy="1.28" r="1.28"/><circle class="cls-9" cx="168.2" cy="61.97" r="2"/><circle class="cls-9" cx="130.2" cy="143.97" r="2"/><path class="cls-6" d="M125.09,102.44A16.6,16.6,0,0,1,141.54,117h2a18.61,18.61,0,0,0-18.47-16.58,1,1,0,0,0,0,2Z" transform="translate(-28.89 -45.05)"/><path class="cls-6" d="M141.54,121a16.58,16.58,0,0,1-33-2,1,1,0,0,0-2,0,18.58,18.58,0,0,0,37.05,2Z" transform="translate(-28.89 -45.05)"/><path class="cls-6" d="M151.67,117h2a28.66,28.66,0,0,0-57.26,2,1,1,0,0,0,2,0,26.66,26.66,0,0,1,53.25-2Z" transform="translate(-28.89 -45.05)"/><path class="cls-6" d="M151.67,121a26.7,26.7,0,0,1-26.58,24.67,1,1,0,0,0,0,2A28.7,28.7,0,0,0,153.68,121Z" transform="translate(-28.89 -45.05)"/><path class="cls-6" d="M125.09,82.27A36.79,36.79,0,0,1,161.78,117h2a38.8,38.8,0,0,0-38.7-36.75,1,1,0,0,0,0,2Z" transform="translate(-28.89 -45.05)"/><path class="cls-6" d="M161.78,121a36.75,36.75,0,0,1-73.44-2,1,1,0,0,0-2,0,38.75,38.75,0,0,0,77.45,2Z" transform="translate(-28.89 -45.05)"/><path class="cls-6" d="M171.87,121a46.83,46.83,0,0,1-93.62-2,1,1,0,0,0-2,0,48.83,48.83,0,0,0,97.62,2Z" transform="translate(-28.89 -45.05)"/><path class="cls-6" d="M125.09,72.19A46.89,46.89,0,0,1,171.87,117h2a48.89,48.89,0,0,0-48.78-46.83,1,1,0,0,0,0,2Z" transform="translate(-28.89 -45.05)"/><path class="cls-6" d="M182,117h2a58.91,58.91,0,0,0-117.78,2,1,1,0,0,0,2,0A56.91,56.91,0,0,1,182,117Z" transform="translate(-28.89 -45.05)"/><path class="cls-6" d="M182,121a57,57,0,0,1-56.87,54.92,1,1,0,0,0,0,2A59,59,0,0,0,184,121Z" transform="translate(-28.89 -45.05)"/><path class="cls-6" d="M192,121a67,67,0,1,1-66.95-69,1,1,0,0,0,0-2A69,69,0,1,0,194,121Z" transform="translate(-28.89 -45.05)"/><polygon class="cls-6" points="174.79 64.97 167.79 71.97 170.62 71.97 175.62 66.97 189.2 66.97 189.2 64.97 174.79 64.97"/><path class="cls-4" d="M126,121l-.85.85,3.67,3.67a7.53,7.53,0,0,0,2.83-2.83L129.92,121Z" transform="translate(-28.89 -45.05)"/><polygon class="cls-6" points="184.2 76.97 96.2 76.97 96.2 74.97 182.2 74.97 182.2 71.56 186.79 66.97 175.2 66.97 175.2 64.97 191.61 64.97 184.2 72.38 184.2 76.97"/></g></svg>