<svg xmlns="http://www.w3.org/2000/svg" viewBox="0 0 364.85 340.92"><defs><style>.cls-1{fill:#fff;}.cls-2{fill:none;}</style></defs><title>Asset 3</title><g id="Layer_2" data-name="Layer 2"><g id="Layer_1-2" data-name="Layer 1"><rect class="cls-1" x="179.63" y="70.4" width="84.19" height="18.7" transform="translate(60.38 251.48) rotate(-66.57)"/><circle class="cls-1" cx="245.15" cy="25.68" r="25.68" transform="matrix(0.8, -0.6, 0.6, 0.8, 33.82, 152.56)"/><circle class="cls-1" cx="339.17" cy="150.63" r="25.68" transform="translate(-22.41 234.21) rotate(-36.96)"/><circle class="cls-1" cx="25.68" cy="190.3" r="25.68" transform="translate(-109.26 53.68) rotate(-36.96)"/><circle class="cls-1" cx="119.7" cy="315.24" r="25.68" transform="translate(-165.49 135.33) rotate(-36.96)"/><rect class="cls-1" x="111.98" y="52.01" width="18.7" height="77.34" transform="translate(-30.14 91.17) rotate(-36.96)"/><rect class="cls-1" x="238.43" y="220.04" width="18.7" height="77.34" transform="matrix(0.8, -0.6, 0.6, 0.8, -105.76, 200.97)"/><circle class="cls-1" cx="86.84" cy="44.84" r="25.68" transform="translate(-9.51 61.22) rotate(-36.96)"/><circle class="cls-1" cx="276.93" cy="297.44" r="25.68" transform="translate(-123.2 226.29) rotate(-36.96)"/><path class="cls-1" d="M131,103.57A84.56,84.56,0,1,0,249.45,120.3,84.56,84.56,0,0,0,131,103.57ZM210,207.1a45.64,45.64,0,1,1,9-63.91A45.64,45.64,0,0,1,210,207.1Z"/><path class="cls-2" d="M245.15,25.68"/><path class="cls-2" d="M119.7,315.24"/></g></g></svg>