<?xml version="1.0" encoding="utf-8"?>
<!-- Generator: Adobe Illustrator 16.0.0, SVG Export Plug-In . SVG Version: 6.00 Build 0)  -->
<!DOCTYPE svg PUBLIC "-//W3C//DTD SVG 1.1//EN" "http://www.w3.org/Graphics/SVG/1.1/DTD/svg11.dtd">
<svg version="1.1" id="Layer_1" xmlns="http://www.w3.org/2000/svg" xmlns:xlink="http://www.w3.org/1999/xlink" x="0px" y="0px"
	 width="64px" height="64px" viewBox="0 0 64 64" enable-background="new 0 0 64 64" xml:space="preserve">
<g>
	<g>
		<path fill="#FFFFFF" d="M40.8,49.2c-0.804,0-1.185-0.692-1.582-1.718c-0.26,0.871-0.599,1.52-1.395,1.52l0,0
			c-0.066,0-0.154-0.009-0.22-0.021c-2.728-0.453-5.48-1.842-8.152-4.119c-3.048-2.59-6.633-3.066-10.461-1.439
			c-0.124,0.053-0.302,0.087-0.436,0.087h-0.001c-0.771,0-1.154-0.614-1.493-1.497c-0.372,1.956-0.55,2.682-1.037,3.07
			c-2.02,1.352-3.257,2.761-3.269,2.775c-0.274,0.312-0.715,0.423-1.105,0.279C11.259,47.99,11,47.617,11,47.2V21.5
			c0-0.244,0.089-0.479,0.25-0.662c0.219-0.247,5.425-6.053,12-6.053c1.658,0,3.269,0.375,4.788,1.116
			c0.628,0.374,0.804,1.054,0.934,1.984c0.261-0.314,0.558-0.511,0.969-0.511c0.202,0,0.433,0.076,0.613,0.196l0.001-0.001
			c0.176,0.117,0.323,0.233,0.469,0.351c0.104,0.083,0.207,0.167,0.331,0.25c2.844,2.185,5.704,3.272,8.555,3.272
			c6.404,0,10.861-5.507,10.906-5.562c0.265-0.333,0.713-0.461,1.111-0.322c0.401,0.14,0.672,0.518,0.672,0.943v7.2
			c0,0.197-0.06,0.391-0.168,0.555l-1.686,2.527l1.158,0.124c0.51,0.053,0.896,0.482,0.896,0.993v14.4
			c0,0.228-0.077,0.447-0.219,0.625c-0.19,0.238-4.757,5.853-11.722,6.273C40.84,49.199,40.82,49.2,40.8,49.2z M39.1,43.9
			c0.065,0,0.131,0.007,0.195,0.02c0.794,0.158,1.088,0.955,1.576,2.273c0.102,0.279,0.252,0.684,0.375,0.967
			c5.033-0.528,8.65-4.221,9.554-5.23V28.798l-1.905-0.204c-0.349-0.037-0.65-0.253-0.799-0.57s-0.121-0.688,0.072-0.979
			l2.432-3.648v-4.432c-2.076,1.868-5.844,4.476-10.688,4.476c-3.304,0-6.573-1.228-9.72-3.648c-0.015-0.009-0.03-0.02-0.046-0.03
			c-0.017,0.031-0.034,0.061-0.049,0.088c-0.473,0.848-0.815,1.461-1.556,1.461c-0.198,0-0.43-0.07-0.594-0.18
			c-0.627-0.374-0.736-1.248-0.887-2.458c-0.041-0.327-0.104-0.833-0.17-1.109c-1.117-0.505-2.36-0.779-3.637-0.779
			c-4.926,0-9.191,4.028-10.25,5.112v22.961c0.473-0.399,1.03-0.836,1.662-1.268c0.136-0.378,0.321-1.355,0.448-2.025
			c0.4-2.11,0.569-2.859,1.176-3.224c0.155-0.094,0.401-0.159,0.583-0.159c0.999,0,1.348,1.033,1.79,2.342
			c0.074,0.219,0.175,0.518,0.27,0.77c1.458-0.54,2.951-0.822,4.399-0.822c2.686,0,5.182,0.965,7.42,2.866
			c2.176,1.854,4.38,3.045,6.562,3.546c0.063-0.224,0.129-0.48,0.179-0.672C37.803,44.973,38.075,43.9,39.1,43.9z"/>
	</g>
	<g>
		<g>
			<path fill="#FFFFFF" d="M17.2,29.5c-0.256,0-0.512-0.098-0.707-0.293c-0.391-0.391-0.391-1.023,0-1.414l3.9-3.9
				c0.391-0.391,1.023-0.391,1.414,0s0.391,1.023,0,1.414l-3.9,3.9C17.712,29.402,17.456,29.5,17.2,29.5z"/>
		</g>
		<g>
			<path fill="#FFFFFF" d="M21.1,29.5c-0.256,0-0.512-0.098-0.707-0.293l-3.9-3.9c-0.391-0.391-0.391-1.023,0-1.414
				c0.391-0.391,1.023-0.391,1.414,0l3.9,3.9c0.391,0.391,0.391,1.023,0,1.414C21.612,29.402,21.356,29.5,21.1,29.5z"/>
		</g>
	</g>
	<g>
		<path fill="#FFFFFF" d="M44.6,40.8c-1.599,0-2.898-1.301-2.898-2.899c0-1.6,1.301-2.899,2.898-2.899c1.601,0,2.9,1.301,2.9,2.899
			S46.199,40.8,44.6,40.8z M44.6,37c-0.496,0-0.898,0.404-0.898,0.9S44.104,38.8,44.6,38.8s0.9-0.403,0.9-0.899
			C45.5,37.405,45.096,37,44.6,37z"/>
	</g>
	<g>
		<path fill="#FFFFFF" d="M42.8,38.9c-0.003,0-0.006,0-0.009,0c0,0-0.773-0.008-2.014-0.051c-0.551-0.019-0.983-0.48-0.965-1.033
			c0.02-0.551,0.502-0.996,1.033-0.965c1.203,0.041,1.955,0.049,1.963,0.049c0.553,0.005,0.996,0.457,0.99,1.009
			C43.795,38.459,43.348,38.9,42.8,38.9z M37.811,38.712c-0.021,0-0.041-0.001-0.062-0.002c-0.642-0.038-1.319-0.084-2.019-0.14
			c-0.551-0.043-0.961-0.524-0.918-1.075c0.045-0.55,0.515-0.962,1.076-0.918c0.686,0.055,1.35,0.099,1.979,0.137
			c0.552,0.033,0.972,0.507,0.938,1.058C38.775,38.303,38.334,38.712,37.811,38.712z M32.822,38.289
			c-0.037,0-0.075-0.002-0.114-0.007c-0.681-0.077-1.358-0.166-2.021-0.265c-0.546-0.082-0.922-0.593-0.84-1.139
			c0.082-0.547,0.598-0.917,1.137-0.841c0.639,0.097,1.293,0.182,1.952,0.257c0.549,0.062,0.941,0.559,0.879,1.105
			C33.757,37.912,33.324,38.289,32.822,38.289z M27.884,37.475c-0.077,0-0.154-0.009-0.231-0.026
			c-0.661-0.156-1.258-0.325-1.775-0.501c-0.102-0.034-0.197-0.069-0.289-0.106c-0.512-0.206-0.76-0.789-0.554-1.301
			c0.207-0.515,0.786-0.763,1.301-0.556c0.059,0.023,0.122,0.048,0.187,0.07c0.456,0.154,0.992,0.305,1.591,0.447
			c0.538,0.127,0.87,0.666,0.743,1.203C28.748,37.165,28.337,37.475,27.884,37.475z M25.109,34.572
			c-0.176,0-0.354-0.047-0.515-0.145c-0.473-0.283-0.626-0.898-0.341-1.371c0.302-0.502,0.735-1.034,1.405-1.726
			c0.383-0.397,1.017-0.407,1.414-0.023c0.397,0.384,0.407,1.017,0.023,1.415c-0.552,0.569-0.911,1.004-1.128,1.364
			C25.779,34.398,25.448,34.572,25.109,34.572z M28.512,30.914c-0.251,0-0.502-0.094-0.697-0.283
			c-0.396-0.385-0.405-1.018-0.021-1.414c0.554-0.57,0.919-1.006,1.148-1.372c0.293-0.468,0.911-0.608,1.378-0.316
			c0.468,0.293,0.609,0.911,0.316,1.378c-0.311,0.495-0.745,1.02-1.408,1.703C29.033,30.812,28.772,30.914,28.512,30.914z
			 M22.401,27.5c-0.375,0-0.735-0.212-0.906-0.574c-0.235-0.5-0.021-1.095,0.478-1.33c0.035-0.017,0.874-0.41,2.033-0.742
			c0.532-0.152,1.084,0.155,1.236,0.687c0.152,0.531-0.155,1.084-0.687,1.236c-0.993,0.284-1.723,0.625-1.73,0.628
			C22.688,27.469,22.544,27.5,22.401,27.5z M29.156,26.894c-0.17,0-0.342-0.043-0.5-0.134c-0.379-0.219-0.869-0.342-1.457-0.367
			c-0.552-0.022-0.981-0.488-0.958-1.04c0.022-0.552,0.491-0.986,1.04-0.958c0.915,0.038,1.714,0.25,2.376,0.633
			c0.478,0.276,0.642,0.888,0.365,1.366C29.838,26.715,29.502,26.894,29.156,26.894z"/>
	</g>
</g>
</svg>
