<?xml version="1.0" encoding="utf-8"?>
<!-- Generator: Adobe Illustrator 16.0.0, SVG Export Plug-In . SVG Version: 6.00 Build 0)  -->
<!DOCTYPE svg PUBLIC "-//W3C//DTD SVG 1.1//EN" "http://www.w3.org/Graphics/SVG/1.1/DTD/svg11.dtd">
<svg version="1.1" id="Layer_1" xmlns="http://www.w3.org/2000/svg" xmlns:xlink="http://www.w3.org/1999/xlink" x="0px" y="0px"
	 width="64px" height="64px" viewBox="0 0 64 64" enable-background="new 0 0 64 64" xml:space="preserve">
<g>
	<g>
		<path fill="#FFFFFF" d="M47,45h-3c-1.273,0-2.2-0.715-2.2-1.7V14c0-0.969,0.903-1.7,2.101-1.7H47c1.197,0,2.1,0.731,2.1,1.7v29.3
			C49.1,44.27,48.197,45,47,45z M43.8,42.984C43.854,42.993,43.92,43,44,43h3c0.037,0,0.07-0.003,0.1-0.007V14.306
			C47.07,14.302,47.037,14.3,47,14.3h-3.1c-0.037,0-0.071,0.002-0.102,0.006L43.8,42.984L43.8,42.984z"/>
	</g>
	<g>
		<path fill="#FFFFFF" d="M42.8,43c-0.108,0-0.22-0.018-0.325-0.055l-17.7-6.101C24.371,36.707,24.1,36.327,24.1,35.9V21.4
			c0-0.427,0.271-0.806,0.674-0.945l17.699-6.1c0.307-0.106,0.645-0.057,0.907,0.131s0.419,0.491,0.419,0.814V42
			c0,0.323-0.156,0.627-0.419,0.814C43.209,42.938,43.005,43,42.8,43z M26.1,35.188l15.7,5.41V16.702l-15.7,5.411V35.188z"/>
	</g>
	<g>
		<path fill="#FFFFFF" d="M25.1,37H18c-1.158,0-2.1-0.941-2.1-2.1V22.5c0-1.158,0.942-2.1,2.1-2.1h7.1c0.552,0,1,0.448,1,1V36
			C26.1,36.553,25.652,37,25.1,37z M18,22.4c-0.048,0-0.1,0.052-0.1,0.1v12.4c0,0.048,0.052,0.1,0.1,0.1h6.1V22.4H18z"/>
	</g>
	<g>
		<path fill="#FFFFFF" d="M16.9,34.8h-4c-1.158,0-2.1-0.94-2.1-2.1v-8c0-1.158,0.942-2.1,2.1-2.1h4c0.552,0,1,0.448,1,1v10.2
			C17.9,34.354,17.452,34.8,16.9,34.8z M12.9,24.6c-0.048,0-0.1,0.052-0.1,0.1v8c0,0.048,0.052,0.1,0.1,0.1h3v-8.2H12.9z"/>
	</g>
	<g>
		<path fill="#FFFFFF" d="M48.7,35.9c-0.554,0-1-0.447-1-1s0.446-1,1-1c1.18,0,2.5-2.268,2.5-5.3c0-3.033-1.32-5.3-2.5-5.3
			c-0.554,0-1-0.448-1-1c0-0.552,0.446-1,1-1c2.522,0,4.5,3.207,4.5,7.3S51.225,35.9,48.7,35.9z"/>
	</g>
	<g>
		<path fill="#FFFFFF" d="M21.2,51.7h-0.5c-2.096,0-3.8-1.704-3.8-3.8V36c0-0.553,0.448-1,1-1H24c0.552,0,1,0.447,1,1v11.9
			C25,49.96,23.26,51.7,21.2,51.7z M18.9,37v10.9c0,0.992,0.808,1.8,1.8,1.8h0.5c0.942,0,1.8-0.857,1.8-1.8V37H18.9z"/>
	</g>
</g>
</svg>
