<?xml version="1.0" encoding="utf-8"?>
<!-- Generator: Adobe Illustrator 16.0.0, SVG Export Plug-In . SVG Version: 6.00 Build 0)  -->
<!DOCTYPE svg PUBLIC "-//W3C//DTD SVG 1.1//EN" "http://www.w3.org/Graphics/SVG/1.1/DTD/svg11.dtd">
<svg version="1.1" id="Layer_1" xmlns="http://www.w3.org/2000/svg" xmlns:xlink="http://www.w3.org/1999/xlink" x="0px" y="0px"
	 width="64px" height="64px" viewBox="0 0 64 64" enable-background="new 0 0 64 64" xml:space="preserve">
<g>
	<g>
		<path fill="#FFFFFF" d="M54.7,51.1H9.3c-1.159,0-2-0.841-2-2V20.6c0-1.159,0.841-2,2-2h2.1c0.552,0,1,0.448,1,1s-0.448,1-1,1H9.3
			v28.5h45.4V20.6h-2.4c-0.553,0-1-0.448-1-1s0.447-1,1-1h2.4c1.159,0,2,0.841,2,2v28.5C56.7,50.259,55.859,51.1,54.7,51.1z"/>
	</g>
	<g>
		<path fill="#FFFFFF" d="M31.4,49.9c-0.256,0-0.508-0.099-0.698-0.284c-2.444-2.386-5.502-3.595-9.088-3.595
			c-5.353,0-10.062,2.715-10.108,2.742c-0.309,0.181-0.692,0.182-1.003,0.004C10.192,48.589,10,48.259,10,47.9v-28
			c0-0.336,0.168-0.649,0.449-0.834c0.229-0.152,5.701-3.722,11.974-3.722c3.777,0,7.031,1.291,9.671,3.835
			c0.196,0.188,0.306,0.449,0.306,0.72v29c0,0.402-0.241,0.766-0.612,0.922C31.663,49.875,31.531,49.9,31.4,49.9z M21.614,44.021
			c3.338,0,6.284,0.916,8.786,2.729V20.334c-2.199-1.985-4.881-2.99-7.978-2.99c-4.693,0-9.045,2.31-10.422,3.116v25.812
			C13.948,45.377,17.567,44.021,21.614,44.021z"/>
	</g>
	<g>
		<path fill="#FFFFFF" d="M31.8,49.9c-0.001,0-0.002,0-0.003,0c-0.552-0.002-0.999-0.451-0.997-1.004l0.1-29
			c0.002-0.553,0.42-0.991,1.003-0.997c0.552,0.002,0.998,0.451,0.996,1.003l-0.1,29.001C32.798,49.455,32.351,49.9,31.8,49.9z"/>
	</g>
	<g>
		<path fill="#FFFFFF" d="M52,48.9c-0.183,0-0.364-0.05-0.524-0.148C51.431,48.725,46.934,46,41.7,46c-0.553,0-1-0.447-1-1
			s0.447-1,1-1c3.932,0,7.401,1.336,9.3,2.24V20.455c-0.59-0.354-1.728-0.998-3.198-1.638c-0.507-0.22-0.739-0.809-0.519-1.316
			c0.221-0.506,0.806-0.741,1.315-0.518c2.354,1.024,3.892,2.042,3.956,2.085C52.833,19.253,53,19.565,53,19.9v28
			c0,0.362-0.196,0.695-0.513,0.872C52.336,48.857,52.168,48.9,52,48.9z"/>
	</g>
	<g>
		<path fill="#FFFFFF" d="M31.2,49.9c-0.2,0-0.398-0.06-0.567-0.177c-0.277-0.19-0.439-0.508-0.433-0.844l0.6-28.9
			c0.009-0.409,0.265-0.771,0.647-0.916l16.2-6.1c0.307-0.114,0.651-0.073,0.922,0.114C48.839,13.264,49,13.572,49,13.9v28.2
			c0,0.407-0.247,0.774-0.625,0.927l-16.8,6.801C31.455,49.876,31.327,49.9,31.2,49.9z M32.785,20.697l-0.554,26.707L47,41.426
			V15.345L32.785,20.697z"/>
	</g>
	<g>
		<path fill="#FFFFFF" d="M15.701,25.9c-0.376,0-0.737-0.213-0.907-0.577c-0.233-0.5-0.017-1.096,0.483-1.329
			c0.326-0.151,8.029-3.686,13.121-0.761c0.479,0.275,0.644,0.887,0.369,1.365c-0.275,0.479-0.886,0.646-1.365,0.369
			c-4.202-2.415-11.208,0.806-11.279,0.839C15.986,25.87,15.842,25.9,15.701,25.9z"/>
	</g>
	<g>
		<path fill="#FFFFFF" d="M15.701,30.9c-0.376,0-0.737-0.213-0.907-0.577c-0.233-0.5-0.017-1.096,0.483-1.329
			c0.326-0.151,8.029-3.685,13.121-0.761c0.479,0.275,0.644,0.887,0.369,1.365s-0.886,0.646-1.365,0.369
			c-4.202-2.415-11.208,0.806-11.279,0.839C15.986,30.87,15.842,30.9,15.701,30.9z"/>
	</g>
	<g>
		<path fill="#FFFFFF" d="M15.701,35.9c-0.376,0-0.738-0.214-0.907-0.578c-0.233-0.5-0.017-1.095,0.483-1.328
			c0.325-0.151,8.028-3.688,13.121-0.762c0.479,0.275,0.644,0.887,0.369,1.365c-0.275,0.479-0.886,0.644-1.365,0.369
			c-4.188-2.405-11.208,0.808-11.279,0.84C15.986,35.87,15.843,35.9,15.701,35.9z"/>
	</g>
	<g>
		<path fill="#FFFFFF" d="M15.701,40.9c-0.376,0-0.737-0.214-0.907-0.577c-0.233-0.5-0.017-1.096,0.483-1.329
			c0.326-0.151,8.028-3.687,13.121-0.762c0.479,0.275,0.644,0.887,0.369,1.365c-0.275,0.479-0.885,0.644-1.365,0.369
			c-4.2-2.411-11.208,0.806-11.279,0.84C15.986,40.87,15.842,40.9,15.701,40.9z"/>
	</g>
	<g>
		<path fill="#FFFFFF" d="M35.8,25c-0.413,0-0.8-0.258-0.944-0.67c-0.182-0.521,0.093-1.092,0.614-1.274l8-2.8
			c0.523-0.18,1.092,0.093,1.274,0.613c0.182,0.521-0.093,1.092-0.614,1.274l-8,2.8C36.021,24.982,35.909,25,35.8,25z"/>
	</g>
</g>
</svg>
