<?xml version="1.0" encoding="utf-8"?>
<!-- Generator: Adobe Illustrator 16.0.0, SVG Export Plug-In . SVG Version: 6.00 Build 0)  -->
<!DOCTYPE svg PUBLIC "-//W3C//DTD SVG 1.1//EN" "http://www.w3.org/Graphics/SVG/1.1/DTD/svg11.dtd">
<svg version="1.1" id="Layer_1" xmlns="http://www.w3.org/2000/svg" xmlns:xlink="http://www.w3.org/1999/xlink" x="0px" y="0px"
	 width="64px" height="64px" viewBox="0 0 64 64" enable-background="new 0 0 64 64" xml:space="preserve">
<g>
	<g>
		<g>
			<path fill="#FFFFFF" d="M31.538,50.389c-0.018,0-0.035,0-0.052,0c-5.903-0.015-11.475-2.313-15.688-6.478
				C7.5,35.714,7.473,22.571,15.732,12.66c4.578-5.529,11.603-7.961,16.7-5.78c3.73,1.596,5.539,5.328,4.96,10.237
				c-0.063,0.548-0.561,0.943-1.109,0.876c-0.549-0.064-0.94-0.562-0.876-1.11c0.474-4.024-0.862-6.924-3.762-8.165
				c-3.6-1.541-9.86-0.233-14.375,5.219c-7.58,9.096-7.607,21.103-0.067,28.552c3.838,3.791,8.912,5.886,14.287,5.897
				c0.016,0,0.032,0,0.048,0c5.374,0,10.397-2.091,14.151-5.891c4.404-4.405,5.27-8.066,5.22-10.363
				c-0.046-2.042-0.856-3.888-2.284-5.196c-0.803-0.742-2.887-0.919-4.898-1.092c-0.543-0.046-1.09-0.093-1.631-0.151
				c-0.55-0.059-0.947-0.551-0.889-1.101c0.059-0.549,0.539-0.947,1.102-0.888c0.525,0.056,1.061,0.102,1.588,0.147
				c2.457,0.21,4.779,0.409,6.084,1.612c1.83,1.679,2.871,4.032,2.929,6.625c0.059,2.687-0.9,6.917-5.8,11.817
				C42.979,48.086,37.449,50.389,31.538,50.389z"/>
		</g>
		<g>
			<path fill="#FFFFFF" d="M19.9,37.4c-2.206,0-4-1.795-4-4c0-2.207,1.794-4,4-4s4,1.794,4,4C23.9,35.605,22.105,37.4,19.9,37.4z
				 M19.9,31.4c-1.103,0-2,0.897-2,2c0,1.103,0.897,2,2,2s2-0.897,2-2C21.9,32.297,21.003,31.4,19.9,31.4z"/>
		</g>
		<g>
			<path fill="#FFFFFF" d="M26.5,20.5c-2.206,0-4-1.794-4-4s1.794-4,4-4s4,1.794,4,4S28.706,20.5,26.5,20.5z M26.5,14.5
				c-1.103,0-2,0.897-2,2s0.897,2,2,2s2-0.897,2-2S27.603,14.5,26.5,14.5z"/>
		</g>
		<g>
			<path fill="#FFFFFF" d="M36.7,44.1c-2.206,0-4-1.793-4-4c0-2.205,1.794-4,4-4s4,1.795,4,4C40.7,42.307,38.906,44.1,36.7,44.1z
				 M36.7,38.1c-1.103,0-2,0.897-2,2c0,1.104,0.897,2,2,2s2-0.896,2-2C38.7,38.997,37.803,38.1,36.7,38.1z"/>
		</g>
		<g>
			<path fill="#FFFFFF" d="M26.9,44.2c-2.206,0-4-1.794-4-4s1.794-4,4-4s4,1.794,4,4S29.105,44.2,26.9,44.2z M26.9,38.2
				c-1.103,0-2,0.897-2,2s0.897,2,2,2s2-0.897,2-2S28.003,38.2,26.9,38.2z"/>
		</g>
		<g>
			<path fill="#FFFFFF" d="M43.5,37c-2.206,0-4-1.794-4-4s1.794-4,4-4s4,1.794,4,4S45.706,37,43.5,37z M43.5,31
				c-1.104,0-2,0.897-2,2c0,1.104,0.896,2,2,2s2-0.896,2-2C45.5,31.897,44.604,31,43.5,31z"/>
		</g>
		<g>
			<path fill="#FFFFFF" d="M19.7,27.6c-2.206,0-4-1.794-4-4s1.794-4,4-4c2.206,0,4,1.794,4,4S21.906,27.6,19.7,27.6z M19.7,21.6
				c-1.103,0-2,0.897-2,2s0.897,2,2,2s2-0.897,2-2S20.803,21.6,19.7,21.6z"/>
		</g>
	</g>
	<g>
		<g>
			<path fill="#FFFFFF" d="M31.271,33.09c-2.928,0-5.728-1.115-5.846-1.162c-0.344-0.139-0.583-0.457-0.621-0.826
				c-0.038-0.369,0.131-0.729,0.44-0.934c0.006-0.004,1.035-0.716,1.893-2.175c0.279-0.479,0.522-1.164,0.758-1.827
				c0.325-0.915,0.605-1.704,1.045-2.217c1.015-1.019,2.313-1.549,3.708-1.549s2.694,0.53,3.656,1.493
				c1.992,2.115,1.983,5.432,0,7.414C35.124,32.49,33.43,33.09,31.271,33.09z M27.729,30.57c0.961,0.258,2.253,0.52,3.542,0.52
				c1.608,0,2.827-0.403,3.622-1.197c1.227-1.226,1.217-3.293-0.021-4.607c-0.564-0.563-1.359-0.886-2.223-0.886
				c-0.861,0-1.657,0.322-2.243,0.907c-0.146,0.174-0.412,0.925-0.626,1.528c-0.266,0.75-0.542,1.525-0.917,2.168
				C28.493,29.634,28.096,30.155,27.729,30.57z"/>
		</g>
		<g>
			<path fill="#FFFFFF" d="M36.799,27.7c-0.447,0-0.855-0.303-0.969-0.757c-0.17-0.68-0.396-1.096-0.837-1.536
				c-0.386-0.386-0.869-0.646-1.567-0.846c-0.517-0.147-0.824-0.677-0.697-1.199l1.078-4.411c0.033-0.339,0.18-0.553,0.389-0.761
				L48.166,6.727c1.552-1.294,3.841-1.235,5.241,0.167c1.421,1.561,1.463,3.816,0.133,5.28L42.277,26.128
				c-0.094,0.116-0.209,0.207-0.34,0.271c-0.158,0.112-0.319,0.165-0.459,0.188l-4.441,1.085C36.957,27.691,36.878,27.7,36.799,27.7
				z M34.887,22.962c0.489,0.218,1.027,0.538,1.521,1.03c0.464,0.464,0.799,0.945,1.048,1.518l3.428-0.838l11.139-13.801
				c0.662-0.73,0.619-1.853-0.062-2.599c-0.64-0.637-1.716-0.675-2.521-0.005L35.729,19.515L34.887,22.962z"/>
		</g>
		<g>
			<path fill="#FFFFFF" d="M35,32.101c-0.422,0-0.814-0.269-0.951-0.692c-0.398-1.228-0.884-1.185-2.03-0.962
				c-0.67,0.129-1.429,0.275-2.041-0.229C29.594,29.901,29.4,29.424,29.4,28.8c0-0.077-0.004-0.138-0.01-0.186
				c-0.2,0.043-0.516,0.177-0.747,0.325c-0.464,0.297-1.083,0.165-1.381-0.297c-0.299-0.462-0.17-1.079,0.292-1.379
				c0.28-0.183,1.729-1.059,2.866-0.443c0.412,0.223,0.897,0.7,0.971,1.71c0.086-0.015,0.174-0.032,0.249-0.046
				c1.088-0.211,3.353-0.649,4.312,2.309c0.171,0.525-0.117,1.089-0.644,1.26C35.206,32.084,35.102,32.101,35,32.101z"/>
		</g>
	</g>
</g>
</svg>
