<?xml version="1.0" encoding="utf-8"?>
<!-- Generator: Adobe Illustrator 16.0.0, SVG Export Plug-In . SVG Version: 6.00 Build 0)  -->
<!DOCTYPE svg PUBLIC "-//W3C//DTD SVG 1.1//EN" "http://www.w3.org/Graphics/SVG/1.1/DTD/svg11.dtd">
<svg version="1.1" id="Layer_1" xmlns="http://www.w3.org/2000/svg" xmlns:xlink="http://www.w3.org/1999/xlink" x="0px" y="0px"
	 width="64px" height="64px" viewBox="0 0 64 64" enable-background="new 0 0 64 64" xml:space="preserve">
<g>
	<g>
		<g>
			<path fill="#FFFFFF" d="M24.3,54.9C15.863,54.9,9,48.036,9,39.6c0-8.436,6.863-15.3,15.3-15.3c8.437,0,15.3,6.863,15.3,15.3
				C39.6,48.037,32.736,54.9,24.3,54.9z M24.3,26.3c-7.333,0-13.3,5.966-13.3,13.3C11,46.934,16.966,52.9,24.3,52.9
				S37.6,46.934,37.6,39.6C37.6,32.266,31.633,26.3,24.3,26.3z"/>
		</g>
		<g>
			<path fill="#FFFFFF" d="M38.4,38.9c-0.317,0-0.631-0.151-0.823-0.434C34.57,34.104,29.57,31.5,24.2,31.5
				c-5.371,0-10.371,2.604-13.376,6.968c-0.314,0.454-0.937,0.568-1.391,0.257c-0.455-0.313-0.569-0.937-0.256-1.392
				C12.556,32.428,18.172,29.5,24.2,29.5c6.028,0,11.646,2.928,15.022,7.833c0.313,0.455,0.199,1.077-0.256,1.392
				C38.795,38.843,38.598,38.9,38.4,38.9z"/>
		</g>
		<g>
			<path fill="#FFFFFF" d="M24,55c-0.552,0-1-0.447-1-1V26c0-0.552,0.448-1,1-1s1,0.448,1,1v28C25,54.553,24.552,55,24,55z"/>
		</g>
		<g>
			<path fill="#FFFFFF" d="M12.799,48.9c-0.462,0-0.877-0.322-0.977-0.793c-0.807-3.791,0.311-5.782,2.164-9.08
				c0.684-1.219,1.458-2.598,2.315-4.364c0.935-1.899,1.184-3.341,0.703-4.067c-0.488-0.735-1.735-0.704-1.745-0.698
				c-0.546,0.03-1.024-0.389-1.056-0.941c-0.032-0.551,0.39-1.024,0.941-1.056c0.099-0.003,2.395-0.118,3.527,1.59
				c0.916,1.382,0.724,3.417-0.573,6.05c-0.88,1.814-1.67,3.225-2.368,4.466c-1.786,3.181-2.601,4.632-1.951,7.687
				c0.115,0.539-0.229,1.07-0.77,1.187C12.938,48.895,12.868,48.9,12.799,48.9z"/>
		</g>
		<g>
			<path fill="#FFFFFF" d="M35.801,48.9c-0.068,0-0.139-0.008-0.209-0.021c-0.54-0.115-0.885-0.646-0.771-1.188
				c0.65-3.055-0.164-4.506-1.949-7.686c-0.698-1.242-1.488-2.65-2.371-4.471c-1.293-2.628-1.486-4.663-0.57-6.045
				c1.133-1.709,3.433-1.595,3.528-1.59c0.552,0.032,0.974,0.505,0.94,1.056c-0.031,0.549-0.519,0.972-1.051,0.941
				c-0.021,0.002-1.274-0.032-1.756,0.704c-0.475,0.728-0.225,2.168,0.704,4.056c0.858,1.771,1.634,3.151,2.317,4.368
				c1.853,3.3,2.971,5.289,2.164,9.082C36.678,48.578,36.264,48.9,35.801,48.9z"/>
		</g>
	</g>
	<g>
		<g>
			<g>
				<path fill="#FFFFFF" d="M42.6,41c-0.201,0-0.401-0.061-0.578-0.184c-0.449-0.319-0.557-0.943-0.237-1.396l2.983-4.211
					l-2.873-3.91H35.2c-0.554,0-1-0.448-1-1c0-0.552,0.446-1,1-1h7.2c0.317,0,0.617,0.151,0.806,0.408l3.601,4.899
					c0.254,0.348,0.26,0.818,0.01,1.17l-3.399,4.801C43.221,40.854,42.912,41,42.6,41z"/>
			</g>
			<g>
				<path fill="#FFFFFF" d="M45.9,36.2c-0.312,0-0.614-0.146-0.807-0.408l-3.601-4.9c-0.193-0.263-0.246-0.604-0.142-0.913
					l2.299-6.8c0.104-0.304,0.346-0.54,0.651-0.635l5.802-1.8c0.408-0.127,0.852,0.021,1.104,0.366l3.5,4.8
					c0.326,0.446,0.229,1.072-0.219,1.397c-0.446,0.325-1.072,0.227-1.396-0.219l-3.078-4.222l-4.631,1.437l-1.97,5.823l2.862,3.897
					l5.111-1.675c0.529-0.172,1.092,0.115,1.262,0.638c0.172,0.525-0.113,1.091-0.639,1.263l-5.8,1.899
					C46.109,36.184,46.004,36.2,45.9,36.2z"/>
			</g>
			<g>
				<path fill="#FFFFFF" d="M35.1,31.4c-0.424,0-0.816-0.271-0.953-0.697l-2.042-6.413l-4.618-1.513l-1.873,2.605
					c-0.321,0.449-0.948,0.551-1.396,0.229c-0.449-0.322-0.551-0.947-0.229-1.396l2.3-3.2c0.254-0.355,0.709-0.504,1.124-0.367
					l5.8,1.9c0.306,0.1,0.544,0.34,0.642,0.646l2.199,6.9c0.168,0.526-0.123,1.089-0.648,1.256C35.303,31.385,35.2,31.4,35.1,31.4z"
					/>
			</g>
			<g>
				<path fill="#FFFFFF" d="M32.9,24.5c-0.104,0-0.211-0.016-0.312-0.05l-5.8-1.9c-0.411-0.134-0.689-0.518-0.689-0.95v-6
					c0-0.552,0.448-1,1-1c0.552,0,1,0.448,1,1v5.275l4.625,1.516L37.7,18.79v-4.865l-5.111-1.675
					c-0.525-0.172-0.811-0.737-0.639-1.262c0.172-0.525,0.737-0.813,1.262-0.639l5.8,1.9c0.411,0.135,0.688,0.518,0.688,0.95v6.1
					c0,0.321-0.153,0.622-0.413,0.81l-5.801,4.2C33.314,24.435,33.107,24.5,32.9,24.5z"/>
			</g>
			<g>
				<path fill="#FFFFFF" d="M44.6,24.5c-0.205,0-0.408-0.063-0.58-0.186l-5.898-4.2c-0.264-0.188-0.42-0.491-0.42-0.814v-6.1
					c0-0.434,0.279-0.819,0.693-0.952l5.898-1.9c0.523-0.17,1.089,0.12,1.259,0.645c0.169,0.526-0.12,1.089-0.646,1.258L39.7,13.929
					v4.855l5.075,3.614l4.625-1.435V15.6c0-0.552,0.447-1,1-1s1,0.448,1,1v6.1c0,0.438-0.285,0.825-0.705,0.955l-5.801,1.8
					C44.799,24.485,44.699,24.5,44.6,24.5z"/>
			</g>
		</g>
		<g>
			<path fill="#FFFFFF" d="M38.9,41.5H38.6c-0.553,0-1-0.447-1-1v-0.9c0-7.333-5.966-13.3-13.3-13.3h-0.7c-0.552,0-1-0.448-1-1
				c0-8.933,7.267-16.2,16.2-16.2c8.987,0,16.3,7.267,16.3,16.2S47.833,41.5,38.9,41.5z M24.635,24.303
				c8.243,0.178,14.902,6.909,14.965,15.18c7.506-0.365,13.5-6.588,13.5-14.184c0-7.83-6.414-14.2-14.3-14.2
				C31.305,11.1,25.148,16.937,24.635,24.303z"/>
		</g>
	</g>
</g>
</svg>
