<?xml version="1.0" encoding="utf-8"?>
<!-- Generator: Adobe Illustrator 16.0.0, SVG Export Plug-In . SVG Version: 6.00 Build 0)  -->
<!DOCTYPE svg PUBLIC "-//W3C//DTD SVG 1.1//EN" "http://www.w3.org/Graphics/SVG/1.1/DTD/svg11.dtd">
<svg version="1.1" id="Layer_1" xmlns="http://www.w3.org/2000/svg" xmlns:xlink="http://www.w3.org/1999/xlink" x="0px" y="0px"
	 width="64px" height="64px" viewBox="0 0 64 64" enable-background="new 0 0 64 64" xml:space="preserve">
<g>
	<g>
		<path fill="#FFFFFF" d="M32,53.8c-12.021,0-21.8-9.778-21.8-21.8c0-12.021,9.779-21.8,21.8-21.8c12.021,0,21.8,9.779,21.8,21.8
			C53.8,44.021,44.021,53.8,32,53.8z M32,12.2c-10.917,0-19.8,8.882-19.8,19.8S21.082,51.8,32,51.8S51.8,42.918,51.8,32
			C51.8,21.083,42.918,12.2,32,12.2z"/>
	</g>
	<g>
		<path fill="#FFFFFF" d="M32,39.6c-4.191,0-7.6-3.408-7.6-7.6c0-4.191,3.409-7.6,7.6-7.6c4.189,0,7.6,3.409,7.6,7.6
			C39.6,36.189,36.189,39.6,32,39.6z M32,26.4c-3.088,0-5.6,2.512-5.6,5.6s2.512,5.6,5.6,5.6s5.6-2.512,5.6-5.6S35.088,26.4,32,26.4
			z"/>
	</g>
	<g>
		<path fill="#FFFFFF" d="M25.3,33.102c-0.01,0-0.019-0.002-0.029-0.002l-14.2-0.398c-0.266-0.008-0.518-0.121-0.701-0.315
			c-0.182-0.194-0.28-0.453-0.271-0.719c0.112-3.247,0.818-6.241,2.099-8.899c1.435-2.973,3.408-5.508,5.864-7.537
			c0.424-0.35,1.051-0.292,1.404,0.13l9.1,10.9c0.351,0.42,0.299,1.043-0.117,1.4c-0.7,0.6-1.246,1.292-1.537,1.947
			c-0.312,0.703-0.515,1.551-0.619,2.594C26.244,32.712,25.812,33.102,25.3,33.102z M12.155,30.729l12.272,0.346
			c0.144-0.859,0.361-1.611,0.659-2.281c0.348-0.783,0.855-1.448,1.347-1.971l-7.847-9.399c-1.887,1.726-3.427,3.812-4.585,6.211
			C12.974,25.767,12.354,28.149,12.155,30.729z"/>
	</g>
	<g>
		<path fill="#FFFFFF" d="M45.9,48.5c-0.021,0-0.039-0.001-0.06-0.002c-0.267-0.016-0.517-0.139-0.692-0.338l-9.399-10.7
			c-0.325-0.37-0.333-0.922-0.017-1.301c0.475-0.57,0.924-1.108,1.272-1.808c0.324-0.647,0.41-1.342,0.502-2.076
			C37.57,31.775,37.996,31.4,38.5,31.4c0.002,0,0.005,0,0.007,0l14.2,0.1c0.55,0.004,0.993,0.451,0.993,1
			c0,2.807-0.648,5.684-1.981,8.794c-1.217,2.636-2.945,4.966-5.148,6.949C46.385,48.409,46.146,48.5,45.9,48.5z M37.811,36.775
			l8.157,9.285c1.652-1.643,2.972-3.516,3.925-5.58c1.056-2.463,1.644-4.766,1.777-6.987l-12.302-0.087
			c-0.101,0.588-0.259,1.211-0.573,1.841C38.496,35.844,38.157,36.332,37.811,36.775z"/>
	</g>
</g>
</svg>
