<?xml version="1.0" encoding="utf-8"?>
<!-- Generator: Adobe Illustrator 16.0.0, SVG Export Plug-In . SVG Version: 6.00 Build 0)  -->
<!DOCTYPE svg PUBLIC "-//W3C//DTD SVG 1.1//EN" "http://www.w3.org/Graphics/SVG/1.1/DTD/svg11.dtd">
<svg version="1.1" id="Layer_1" xmlns="http://www.w3.org/2000/svg" xmlns:xlink="http://www.w3.org/1999/xlink" x="0px" y="0px"
	 width="64px" height="64px" viewBox="0 0 64 64" enable-background="new 0 0 64 64" xml:space="preserve">
<g>
	<g>
		<g>
			<path fill="#FFFFFF" d="M26.3,36.4c-3.667,0-10.9-10.685-10.9-16.102c0-6.01,4.89-10.9,10.9-10.9c6.011,0,10.9,4.89,10.9,10.9
				C37.2,26.003,29.557,36.4,26.3,36.4z M26.3,11.4c-4.907,0-8.9,3.993-8.9,8.9c0,5.094,7.037,14.083,8.895,14.101
				C27.924,34.234,35.2,25.563,35.2,20.3C35.2,15.393,31.208,11.4,26.3,11.4z"/>
		</g>
		<g>
			<path fill="#FFFFFF" d="M26.3,25.2c-2.316,0-4.2-1.884-4.2-4.2s1.884-4.2,4.2-4.2c2.316,0,4.2,1.884,4.2,4.2
				S28.616,25.2,26.3,25.2z M26.3,18.8c-1.213,0-2.2,0.987-2.2,2.2s0.987,2.2,2.2,2.2c1.213,0,2.2-0.987,2.2-2.2
				S27.513,18.8,26.3,18.8z"/>
		</g>
	</g>
	<g>
		<g>
			<path fill="#FFFFFF" d="M49.5,25.3H35.6c-0.553,0-1-0.448-1-1c0-0.552,0.447-1,1-1h13.9c0.553,0,1,0.448,1,1
				C50.5,24.852,50.053,25.3,49.5,25.3z"/>
		</g>
		<g>
			<path fill="#FFFFFF" d="M50.7,54.5H10.5c-1.158,0-2.1-0.941-2.1-2.1v-27c0-1.158,0.942-2.1,2.1-2.1h5.8c0.552,0,1,0.448,1,1
				c0,0.552-0.448,1-1,1h-5.8c-0.048,0-0.1,0.052-0.1,0.1v27c0,0.048,0.052,0.1,0.1,0.1h40.2c1.599,0,2.899-1.301,2.899-2.9V24.3
				c0-0.552,0.446-1,1-1c0.553,0,1,0.448,1,1v25.3C55.6,52.302,53.4,54.5,50.7,54.5z"/>
		</g>
		<g>
			<path fill="#FFFFFF" d="M54.6,50.4c-0.293,0-0.58-0.131-0.773-0.367l-0.899-1.102c-0.745-0.894-2.03-1.432-3.427-1.432
				c-0.553,0-1-0.447-1-1V20.7c0-0.552,0.447-1,1-1h1.1c2.758,0,5,2.243,5,5v24.7c0,0.423-0.266,0.8-0.664,0.94
				C54.825,50.382,54.712,50.4,54.6,50.4z M50.5,45.566c1.171,0.156,2.238,0.592,3.1,1.258V24.7c0-1.654-1.346-3-3-3h-0.1V45.566z"
				/>
		</g>
	</g>
	<g>
		<path fill="#FFFFFF" d="M38.4,47.9h-13c-1.366,0-2.644-0.527-3.508-1.446c-0.698-0.743-1.049-1.672-0.99-2.616
			C20.9,41.77,22.964,40.1,25.6,40.1l4.025,0.102c1.425,0,2.612-0.817,2.677-1.862c-0.002-1.006-1.098-1.866-2.552-1.938
			L26.964,36.3c-0.552-0.02-0.983-0.483-0.963-1.034c0.02-0.553,0.48-1.005,1.036-0.964l2.8,0.101c2.551,0.128,4.464,1.847,4.464,4
			c-0.135,2.192-2.154,3.8-4.7,3.8L25.575,42.1c-1.439,0-2.675,0.824-2.675,1.801c-0.033,0.56,0.227,0.947,0.45,1.186
			c0.48,0.512,1.246,0.814,2.05,0.814h13c0.553,0,1,0.447,1,1C39.4,47.454,38.953,47.9,38.4,47.9z"/>
	</g>
	<g>
		<path fill="#FFFFFF" d="M41.5,50.6c-2.04,0-3.7-1.658-3.7-3.699c0-2.039,1.66-3.699,3.7-3.699s3.7,1.66,3.7,3.699
			C45.2,48.941,43.54,50.6,41.5,50.6z M41.5,45.2c-0.938,0-1.7,0.763-1.7,1.7c0,0.937,0.763,1.699,1.7,1.699s1.7-0.764,1.7-1.699
			C43.2,45.963,42.438,45.2,41.5,45.2z"/>
	</g>
</g>
</svg>
