<?xml version="1.0" encoding="utf-8"?>
<!-- Generator: Adobe Illustrator 16.0.0, SVG Export Plug-In . SVG Version: 6.00 Build 0)  -->
<!DOCTYPE svg PUBLIC "-//W3C//DTD SVG 1.1//EN" "http://www.w3.org/Graphics/SVG/1.1/DTD/svg11.dtd">
<svg version="1.1" id="Layer_1" xmlns="http://www.w3.org/2000/svg" xmlns:xlink="http://www.w3.org/1999/xlink" x="0px" y="0px"
	 width="64px" height="64px" viewBox="0 0 64 64" enable-background="new 0 0 64 64" xml:space="preserve">
<g>
	<g>
		<path fill="#FFFFFF" d="M32,54.9c-12.517,0-22.7-10.185-22.7-22.7C9.3,19.683,19.483,9.5,32,9.5c12.518,0,22.7,10.183,22.7,22.7
			C54.7,44.717,44.518,54.9,32,54.9z M32,11.5c-11.414,0-20.7,9.286-20.7,20.7S20.586,52.9,32,52.9s20.7-9.286,20.7-20.7
			S43.414,11.5,32,11.5z"/>
	</g>
	<g>
		<g>
			<path fill="#FFFFFF" d="M35.8,37.2c-0.263,0-0.519-0.104-0.707-0.293l-7.5-7.5c-0.229-0.228-0.333-0.553-0.279-0.871
				c0.053-0.319,0.256-0.592,0.546-0.734l14.701-7.2c0.383-0.188,0.846-0.112,1.146,0.191c0.303,0.302,0.379,0.763,0.191,1.147
				l-7.2,14.701c-0.144,0.289-0.416,0.493-0.734,0.547C35.909,37.195,35.854,37.2,35.8,37.2z M29.997,28.982l5.521,5.521
				l5.301-10.821L29.997,28.982z"/>
		</g>
		<g>
			<path fill="#FFFFFF" d="M21.101,44.4c-0.26,0-0.516-0.102-0.708-0.293c-0.302-0.303-0.379-0.764-0.191-1.146l7.2-14.701
				c0.142-0.29,0.415-0.494,0.734-0.546c0.318-0.052,0.643,0.051,0.871,0.279l7.5,7.5c0.229,0.229,0.332,0.553,0.279,0.871
				c-0.054,0.317-0.257,0.592-0.548,0.733l-14.698,7.2C21.4,44.367,21.25,44.4,21.101,44.4z M28.583,30.397l-5.3,10.821l10.82-5.3
				L28.583,30.397z"/>
		</g>
	</g>
	<g>
		<path fill="#FFFFFF" d="M32,16c-0.552,0-1-0.448-1-1v-5c0-0.552,0.448-1,1-1c0.553,0,1,0.448,1,1v5C33,15.552,32.553,16,32,16z"/>
	</g>
	<g>
		<path fill="#FFFFFF" d="M32,54c-0.552,0-1-0.447-1-1v-5c0-0.553,0.448-1,1-1c0.553,0,1,0.447,1,1v5C33,53.553,32.553,54,32,54z"/>
	</g>
	<g>
		<path fill="#FFFFFF" d="M53,33h-5c-0.553,0-1-0.447-1-1c0-0.552,0.447-1,1-1h5c0.553,0,1,0.448,1,1C54,32.553,53.553,33,53,33z"/>
	</g>
	<g>
		<path fill="#FFFFFF" d="M16,33h-5c-0.552,0-1-0.447-1-1c0-0.552,0.448-1,1-1h5c0.552,0,1,0.448,1,1C17,32.553,16.552,33,16,33z"/>
	</g>
</g>
</svg>
