<?xml version="1.0" encoding="utf-8"?>
<!-- Generator: Adobe Illustrator 16.0.0, SVG Export Plug-In . SVG Version: 6.00 Build 0)  -->
<!DOCTYPE svg PUBLIC "-//W3C//DTD SVG 1.1//EN" "http://www.w3.org/Graphics/SVG/1.1/DTD/svg11.dtd">
<svg version="1.1" id="Layer_1" xmlns="http://www.w3.org/2000/svg" xmlns:xlink="http://www.w3.org/1999/xlink" x="0px" y="0px"
	 width="64px" height="64px" viewBox="0 0 64 64" enable-background="new 0 0 64 64" xml:space="preserve">
<g>
	<g>
		<path fill="#FFFFFF" d="M53.5,52.7H10.6c-1.159,0-2-0.841-2-2V23.6c0-1.159,0.841-2,2-2h17.2c0.552,0,1,0.448,1,1
			c0,0.552-0.448,1-1,1H10.6v27.1h42.9V23.6H36.6c-0.553,0-1-0.448-1-1c0-0.552,0.447-1,1-1h16.9c1.159,0,2,0.841,2,2v27.1
			C55.5,51.859,54.659,52.7,53.5,52.7z"/>
	</g>
	<g>
		<path fill="#FFFFFF" d="M37.9,31.4H26.1c-1.159,0-2-0.841-2-2v-2.2c0-1.159,0.841-2,2-2h1.7c0.552,0,1,0.448,1,1
			c0,0.552-0.448,1-1,1h-1.7v2.2h11.8v-2.2h-1.7c-0.554,0-1-0.448-1-1c0-0.552,0.446-1,1-1h1.7c1.158,0,2,0.841,2,2v2.2
			C39.9,30.559,39.061,31.4,37.9,31.4z"/>
	</g>
	<g>
		<path fill="#FFFFFF" d="M35.2,28.6h-6.4c-1.159,0-2-0.841-2-2V13.3c0-1.159,0.841-2,2-2h6.4c1.159,0,2,0.841,2,2v13.2
			C37.2,27.638,36.284,28.6,35.2,28.6z M28.8,13.3v13.3h6.351c0.022-0.021,0.051-0.062,0.051-0.1V13.3H28.8z"/>
	</g>
	<g>
		<path fill="#FFFFFF" d="M26.2,47.1H15.7c-0.591,0-1.138-0.254-1.501-0.695c-0.347-0.424-0.486-0.971-0.38-1.499
			c0.449-2.239,1.757-4.054,3.691-5.122c-0.523-0.717-0.81-1.592-0.81-2.482c0-2.406,1.885-4.292,4.292-4.292
			c0.341,0,0.688,0.039,1.029,0.116c1.588,0.398,2.757,1.566,3.149,3.133c0.351,1.169,0.078,2.565-0.707,3.567
			c1.995,1.134,3.304,2.985,3.625,5.127c0.093,0.46-0.049,0.995-0.398,1.422C27.318,46.828,26.761,47.1,26.2,47.1z M18.533,41.502
			c-1.397,0.753-2.357,2.041-2.72,3.643L26.086,45.1c-0.295-1.543-1.287-2.839-2.754-3.615c-0.444-0.221-0.791-0.674-0.907-1.197
			c-0.123-0.559,0.021-1.145,0.394-1.611c0.375-0.438,0.637-1.175,0.423-1.888c-0.222-0.882-0.847-1.508-1.686-1.718
			c-0.175-0.039-0.372-0.062-0.564-0.062c-1.285,0-2.292,1.008-2.292,2.292c0,0.675,0.301,1.151,0.48,1.375
			c0.367,0.489,0.478,1.111,0.315,1.69C19.351,40.883,19.001,41.293,18.533,41.502z"/>
	</g>
	<g>
		<path fill="#FFFFFF" d="M49,38H33c-0.552,0-1-0.447-1-1s0.448-1,1-1h16c0.553,0,1,0.447,1,1S49.553,38,49,38z"/>
	</g>
	<g>
		<path fill="#FFFFFF" d="M49,42H33c-0.552,0-1-0.447-1-1s0.448-1,1-1h16c0.553,0,1,0.447,1,1S49.553,42,49,42z"/>
	</g>
	<g>
		<path fill="#FFFFFF" d="M49,46H33c-0.552,0-1-0.447-1-1s0.448-1,1-1h16c0.553,0,1,0.447,1,1S49.553,46,49,46z"/>
	</g>
</g>
</svg>
