<?xml version="1.0" encoding="utf-8"?>
<!-- Generator: Adobe Illustrator 16.0.0, SVG Export Plug-In . SVG Version: 6.00 Build 0)  -->
<!DOCTYPE svg PUBLIC "-//W3C//DTD SVG 1.1//EN" "http://www.w3.org/Graphics/SVG/1.1/DTD/svg11.dtd">
<svg version="1.1" id="Layer_1" xmlns="http://www.w3.org/2000/svg" xmlns:xlink="http://www.w3.org/1999/xlink" x="0px" y="0px"
	 width="64px" height="64px" viewBox="0 0 64 64" enable-background="new 0 0 64 64" xml:space="preserve">
<g>
	<g>
		<g>
			<path fill="#FFFFFF" d="M31,29.8c-6.231,0-11.3-5.069-11.3-11.3S24.769,7.2,31,7.2c6.23,0,11.3,5.069,11.3,11.3
				S37.23,29.8,31,29.8z M31,9.2c-5.128,0-9.3,4.172-9.3,9.3s4.172,9.3,9.3,9.3s9.3-4.172,9.3-9.3S36.128,9.2,31,9.2z"/>
		</g>
		<g>
			<g>
				<path fill="#FFFFFF" d="M31,22.4c-2.922,0-5.3-2.377-5.3-5.3c0-2.923,2.377-5.3,5.3-5.3c2.922,0,5.3,2.378,5.3,5.3
					C36.3,20.022,33.922,22.4,31,22.4z M31,13.8c-1.819,0-3.3,1.48-3.3,3.3c0,1.819,1.48,3.3,3.3,3.3c1.82,0,3.3-1.48,3.3-3.3
					S32.818,13.8,31,13.8z"/>
			</g>
			<g>
				<path fill="#FFFFFF" d="M37.3,27.6c-0.553,0-1-0.448-1-1c0-2.15-1.749-3.9-3.9-3.9h-3.1c-1.962,0-3.5,1.538-3.5,3.5
					c0,0.552-0.448,1-1,1c-0.552,0-1-0.448-1-1c0-3.033,2.467-5.5,5.5-5.5h3.1c3.252,0,5.9,2.646,5.9,5.9
					C38.3,27.152,37.854,27.6,37.3,27.6z"/>
			</g>
		</g>
	</g>
	<g>
		<g>
			<path fill="#FFFFFF" d="M18.4,56.7c-6.176,0-11.2-5.024-11.2-11.2s5.024-11.2,11.2-11.2c6.176,0,11.2,5.024,11.2,11.2
				S24.576,56.7,18.4,56.7z M18.4,36.3c-5.073,0-9.2,4.127-9.2,9.2s4.127,9.2,9.2,9.2c5.073,0,9.2-4.127,9.2-9.2
				S23.473,36.3,18.4,36.3z"/>
		</g>
		<g>
			<g>
				<path fill="#FFFFFF" d="M18.4,49.5c-2.922,0-5.3-2.378-5.3-5.3c0-2.923,2.377-5.3,5.3-5.3c2.923,0,5.3,2.377,5.3,5.3
					C23.7,47.122,21.322,49.5,18.4,49.5z M18.4,40.9c-1.819,0-3.3,1.479-3.3,3.3c0,1.819,1.48,3.3,3.3,3.3c1.82,0,3.3-1.48,3.3-3.3
					C21.7,42.38,20.22,40.9,18.4,40.9z"/>
			</g>
			<g>
				<path fill="#FFFFFF" d="M24.7,54.7c-0.552,0-1-0.447-1-1c0-2.15-1.75-3.9-3.9-3.9h-3.1c-1.962,0-3.5,1.537-3.5,3.5
					c0,0.554-0.448,1-1,1c-0.552,0-1-0.446-1-1c0-3.032,2.467-5.5,5.5-5.5h3.1c3.253,0,5.9,2.646,5.9,5.9
					C25.7,54.253,25.252,54.7,24.7,54.7z"/>
			</g>
		</g>
	</g>
	<g>
		<g>
			<path fill="#FFFFFF" d="M45.6,56.8c-6.229,0-11.3-5.069-11.3-11.3s5.069-11.3,11.3-11.3c6.231,0,11.301,5.069,11.301,11.3
				S51.831,56.8,45.6,56.8z M45.6,36.2c-5.127,0-9.3,4.172-9.3,9.3s4.173,9.3,9.3,9.3c5.129,0,9.301-4.172,9.301-9.3
				S50.729,36.2,45.6,36.2z"/>
		</g>
		<g>
			<g>
				<path fill="#FFFFFF" d="M45.6,49.5c-2.922,0-5.3-2.378-5.3-5.3c0-2.923,2.378-5.3,5.3-5.3c2.924,0,5.301,2.377,5.301,5.3
					C50.9,47.122,48.521,49.5,45.6,49.5z M45.6,40.9c-1.818,0-3.3,1.479-3.3,3.3c0,1.819,1.479,3.3,3.3,3.3s3.301-1.48,3.301-3.3
					C48.9,42.38,47.42,40.9,45.6,40.9z"/>
			</g>
			<g>
				<path fill="#FFFFFF" d="M51.9,54.7c-0.553,0-1-0.447-1-1c0-2.15-1.75-3.9-3.9-3.9h-3.1c-1.963,0-3.5,1.537-3.5,3.5
					c0,0.554-0.447,1-1,1s-1-0.446-1-1c0-3.032,2.468-5.5,5.5-5.5H47c3.254,0,5.9,2.646,5.9,5.9C52.9,54.253,52.453,54.7,51.9,54.7z
					"/>
			</g>
		</g>
	</g>
	<g>
		<path fill="#FFFFFF" d="M24.701,38.1c-0.374,0-0.732-0.209-0.903-0.569c-0.237-0.498-0.026-1.095,0.473-1.333L30,33.468V28
			c0-0.552,0.448-1,1-1s1,0.448,1,1v6.1c0,0.387-0.222,0.737-0.57,0.903l-6.3,3C24.991,38.068,24.845,38.1,24.701,38.1z"/>
	</g>
	<g>
		<path fill="#FFFFFF" d="M39.3,38.5c-0.131,0-0.264-0.025-0.392-0.08l-8-3.4c-0.508-0.215-0.745-0.803-0.529-1.312
			c0.216-0.507,0.803-0.747,1.312-0.528l8,3.4c0.508,0.216,0.744,0.803,0.527,1.312C40.059,38.271,39.688,38.5,39.3,38.5z"/>
	</g>
</g>
</svg>
